<svg xmlns="http://www.w3.org/2000/svg" xmlns:xlink="http://www.w3.org/1999/xlink" width="500" zoomAndPan="magnify" viewBox="0 0 375 374.999991" height="500" preserveAspectRatio="xMidYMid meet" version="1.0"><defs><g/><clipPath id="id1"><path d="M 59.390625 41.328125 L 291.890625 41.328125 L 291.890625 231 L 59.390625 231 Z M 59.390625 41.328125 " clip-rule="nonzero"/></clipPath></defs><g clip-path="url(#id1)"><path fill="#c2a476" d="M 289.464844 146.578125 C 289.457031 146.652344 289.433594 146.71875 289.402344 146.789062 C 287.03125 152.011719 280.933594 154.03125 275.730469 155.097656 C 272.324219 155.792969 268.8125 156.238281 265.554688 157.511719 C 262 158.894531 259.003906 161.289062 256.195312 163.808594 C 245.820312 173.113281 235.289062 181.949219 223.582031 189.519531 C 223 193.777344 222.277344 198.03125 221.726562 202.210938 C 220.925781 208.265625 220.117188 214.636719 217.570312 220.242188 C 215.304688 225.253906 211.390625 228.648438 205.828125 229.242188 C 203.792969 229.460938 197.199219 229.84375 195.511719 227.371094 C 195.265625 227.410156 195.003906 227.324219 194.855469 227.042969 C 194.386719 226.15625 194.382812 225.136719 194.671875 224.167969 C 193.035156 222.160156 195.230469 218.980469 196.78125 217.601562 C 197.84375 216.660156 199.402344 216.042969 200.722656 216.304688 C 201.527344 210.242188 201.53125 204.679688 199.390625 198.8125 C 199.101562 198.019531 198.785156 197.238281 198.449219 196.460938 C 188.316406 201.054688 176.21875 198.675781 165.976562 195.59375 C 162.144531 202.269531 158.128906 208.839844 160.011719 216.902344 C 162.527344 215.480469 165.902344 216.105469 167.417969 219.003906 C 169.269531 222.535156 166.460938 227.570312 162.277344 226.90625 C 162.148438 227.230469 161.957031 227.535156 161.695312 227.800781 L 161.578125 227.902344 C 161.757812 228.355469 161.683594 228.914062 161.179688 229.152344 C 156.703125 231.238281 151.625 229.78125 148.117188 226.476562 C 144.019531 222.617188 142.203125 216.875 140.457031 211.699219 C 137.617188 203.269531 135.527344 194.632812 134.175781 185.871094 C 133.957031 186.03125 133.664062 186.085938 133.347656 185.929688 C 122.277344 180.324219 113.105469 171.398438 103.890625 163.25 C 94.648438 155.085938 84.984375 147.226562 73.515625 142.464844 C 67.660156 140.3125 59.414062 135.171875 59.925781 128.300781 C 59.925781 128.1875 59.9375 128.078125 59.953125 127.960938 C 59.984375 127.703125 60.023438 127.429688 60.082031 127.164062 C 60.125 126.949219 60.269531 126.847656 60.429688 126.828125 C 61.050781 125.945312 62.144531 125.304688 63.136719 125.132812 C 63.253906 125.117188 63.359375 125.105469 63.472656 125.09375 C 63.394531 124.90625 63.414062 124.683594 63.609375 124.492188 C 65.03125 123.101562 67.015625 122.417969 68.933594 122.667969 C 69.21875 122.425781 69.636719 122.339844 70.0625 122.585938 C 79.734375 128.070312 88.3125 134.816406 98.980469 138.429688 C 109.167969 141.886719 119.6875 142.714844 130.382812 142.121094 C 129.78125 130.035156 135.503906 117.933594 142.683594 108.089844 C 142.554688 108.054688 142.433594 107.980469 142.324219 107.863281 C 134.722656 99.402344 140.1875 86.878906 148.78125 81.753906 C 149.136719 81.546875 149.648438 81.601562 149.941406 81.910156 C 154.800781 86.960938 158.6875 92.8125 161.546875 99.210938 C 171.59375 95.109375 182.714844 94.554688 193.121094 97.554688 C 194.953125 93.503906 197.128906 89.554688 200.152344 86.265625 C 201.566406 84.714844 203.175781 83.335938 204.96875 82.230469 C 206.117188 81.519531 208.042969 80.1875 209.488281 80.457031 C 210.953125 80.734375 211.683594 82.671875 212.304688 83.835938 C 213.441406 85.953125 214.328125 88.199219 214.960938 90.515625 C 216.238281 95.171875 216.488281 100.078125 215.605469 104.824219 C 215.589844 104.890625 215.570312 104.945312 215.546875 105.003906 C 218.386719 108.15625 220.828125 111.730469 222.808594 115.566406 C 230.125 108.984375 235.714844 100.058594 237.617188 90.351562 C 239.453125 80.992188 237.8125 70.164062 230.761719 63.253906 C 223.15625 55.804688 211.726562 54.996094 201.761719 56.601562 C 197.367188 57.3125 192.167969 59.734375 187.703125 58.65625 C 184.664062 57.921875 182.253906 55.070312 183.25 51.867188 C 184.246094 48.664062 187.699219 46.152344 190.550781 44.710938 C 193.949219 42.996094 197.703125 42.207031 201.464844 41.863281 C 205.824219 41.472656 210.226562 41.671875 214.589844 42 C 219.121094 42.335938 223.703125 42.929688 227.96875 44.558594 C 244.027344 50.714844 252.917969 67.527344 252.519531 84.203125 C 252.074219 102.808594 241.652344 119.472656 228.023438 131.496094 C 228.617188 135.316406 228.761719 139.199219 228.417969 143.027344 C 228.46875 143.011719 228.507812 142.992188 228.566406 142.992188 C 238.933594 142.457031 249.378906 142.027344 259.691406 140.78125 C 264.664062 140.179688 269.730469 139.144531 274.167969 136.722656 C 277.234375 135.042969 280.503906 131.703125 284.304688 132.734375 C 284.523438 132.789062 284.671875 132.910156 284.769531 133.0625 C 286.070312 133.382812 287.429688 133.8125 288.328125 134.851562 C 288.808594 135.417969 289.125 136.09375 289.195312 136.796875 C 291.921875 139.253906 291.496094 143.707031 289.464844 146.578125 " fill-opacity="1" fill-rule="nonzero"/><path fill="#545454" d="M 161.527344 118.367188 C 160.449219 118.476562 159.050781 118.175781 158.085938 117.664062 C 156.285156 116.71875 157.371094 115.320312 159.007812 115.140625 C 159.925781 115.039062 161.355469 114.898438 162.195312 115.484375 C 162.128906 115.734375 162.175781 116.023438 162.363281 116.210938 C 163.289062 117.148438 163.003906 118.21875 161.527344 118.367188 M 163.589844 115.046875 C 162.351562 113.273438 158.828125 113.058594 157.066406 113.921875 C 154.789062 115.027344 154.789062 117.753906 156.859375 119.050781 C 158.703125 120.207031 162.289062 120.949219 163.996094 119.210938 C 165.046875 118.136719 165.050781 115.515625 163.589844 115.046875 M 199.738281 100.195312 C 202.34375 100.769531 206.097656 101.578125 208.023438 103.558594 C 208.40625 103.949219 208.019531 104.570312 207.503906 104.453125 C 206.25 104.160156 205.109375 103.367188 203.925781 102.851562 C 202.464844 102.21875 200.976562 101.703125 199.4375 101.289062 C 198.730469 101.09375 199.03125 100.039062 199.738281 100.195312 M 154.074219 104.664062 C 152.050781 105.292969 150.25 105.851562 148.5 107.109375 C 147.886719 107.550781 147.320312 106.542969 147.914062 106.101562 C 149.632812 104.832031 151.761719 103.730469 153.925781 103.570312 C 154.578125 103.519531 154.648438 104.488281 154.074219 104.664062 M 287.996094 146.089844 C 284.109375 151.871094 277.574219 152.859375 271.210938 154.125 C 264.75 155.410156 259.796875 158.148438 254.914062 162.523438 C 244.9375 171.464844 234.800781 179.941406 223.832031 187.605469 C 224.175781 184.839844 224.445312 182.078125 224.550781 179.339844 C 224.585938 178.453125 223.183594 178.246094 222.992188 179.128906 C 222.273438 182.453125 221.890625 185.894531 221.535156 189.320312 C 221.460938 189.472656 221.449219 189.640625 221.488281 189.792969 C 221.308594 191.488281 221.136719 193.183594 220.925781 194.859375 C 220.210938 200.550781 219.625 206.289062 218.386719 211.898438 C 217.371094 216.496094 215.972656 221.644531 212.339844 224.902344 C 210.175781 226.84375 207.386719 227.613281 204.546875 227.789062 C 203.183594 227.871094 197.019531 228.164062 196.179688 226.246094 C 196.246094 224.695312 196.292969 223.234375 197.792969 222.230469 C 199.292969 221.222656 201.199219 221.488281 202.582031 222.542969 C 203.0625 222.910156 203.703125 222.089844 203.234375 221.699219 C 201.464844 220.210938 198.914062 219.84375 196.910156 221.128906 C 196.53125 221.371094 196.175781 221.691406 195.859375 222.054688 C 195.867188 221.980469 195.878906 221.90625 195.894531 221.832031 C 196.09375 220.984375 196.566406 220.210938 197.109375 219.542969 C 198.078125 218.347656 200.550781 216.386719 201.675781 218.523438 C 202.042969 219.222656 203.066406 218.605469 202.726562 217.90625 C 202.511719 217.464844 202.234375 217.125 201.925781 216.871094 C 204.4375 211.566406 203.507812 204.988281 201.695312 199.601562 C 201.214844 198.183594 200.648438 196.808594 200.011719 195.464844 C 200.214844 194.945312 199.894531 194.242188 199.355469 194.125 C 197.296875 190.117188 194.664062 186.398438 191.984375 182.792969 C 191.496094 182.132812 190.378906 182.75 190.863281 183.449219 C 193.347656 187.035156 195.730469 190.710938 197.621094 194.640625 C 192.820312 196.359375 188.027344 197.242188 182.84375 197.042969 C 177.386719 196.832031 172.007812 195.632812 166.730469 194.265625 C 168.539062 191.066406 170.210938 187.816406 171.082031 184.347656 C 171.308594 183.453125 169.929688 182.773438 169.53125 183.691406 C 166.945312 189.648438 163.53125 195.121094 160.839844 201.011719 C 158.417969 206.320312 157.027344 212.082031 158.660156 217.824219 L 158.699219 217.921875 C 158.496094 218.132812 158.304688 218.355469 158.128906 218.601562 C 157.738281 219.164062 158.660156 219.890625 159.085938 219.339844 C 160.867188 217.070312 164.414062 216.886719 165.886719 219.628906 C 166.546875 220.859375 166.5625 222.34375 165.761719 223.515625 C 164.941406 224.722656 163.777344 225.097656 162.464844 225.367188 C 162.171875 222.429688 158.671875 219.203125 156.792969 221.996094 C 156.382812 222.605469 157.34375 223.140625 157.761719 222.566406 C 158.75 221.214844 160.128906 223.078125 160.507812 223.929688 C 160.96875 224.953125 160.992188 225.878906 160.523438 226.894531 C 160.464844 227.023438 160.445312 227.160156 160.453125 227.285156 L 160.402344 227.300781 C 148.285156 232.398438 143.230469 214.125 140.75 206.082031 C 137.242188 194.710938 134.945312 182.984375 133.839844 171.132812 C 133.765625 170.355469 132.554688 170.328125 132.601562 171.132812 C 132.867188 175.605469 133.324219 180.054688 133.964844 184.476562 C 122.757812 177.691406 113.210938 169.03125 103.359375 160.46875 C 94.785156 153.019531 85.761719 145.8125 75.109375 141.695312 C 75.074219 141.65625 75.035156 141.625 74.984375 141.59375 C 70.207031 138.886719 61.246094 135.851562 60.878906 129.28125 C 61.050781 129.199219 61.199219 129.070312 61.277344 128.886719 C 61.871094 127.472656 62.574219 126.433594 64.296875 126.546875 C 65.695312 126.636719 66.820312 127.480469 67.757812 128.460938 C 68.242188 128.964844 68.957031 128.21875 68.515625 127.695312 C 67.515625 126.507812 66.191406 125.441406 64.671875 125.152344 C 65.839844 124.203125 67.257812 123.847656 68.679688 124.054688 C 68.757812 124.171875 68.871094 124.28125 69.015625 124.375 C 78.742188 130.335938 87.878906 137.03125 98.859375 140.550781 C 108.941406 143.785156 119.972656 145.019531 130.445312 143.203125 C 130.78125 147.328125 131.875 151.4375 133.914062 155.449219 C 141.1875 169.730469 159.96875 174.324219 174.785156 172.152344 C 176.019531 171.96875 175.632812 170.128906 174.503906 170.066406 C 167.074219 169.664062 159.808594 169.945312 152.597656 167.6875 C 145.34375 165.417969 139.136719 160.835938 135.683594 153.953125 C 127.925781 138.488281 135.324219 121.046875 144.285156 107.929688 C 144.585938 107.488281 144.207031 107.082031 143.789062 107.0625 C 143.769531 106.980469 143.738281 106.894531 143.6875 106.8125 C 138.347656 98.515625 141.066406 89.003906 149.101562 83.8125 C 153.71875 88.703125 157.546875 94.152344 160.484375 100.21875 C 160.507812 100.269531 160.539062 100.316406 160.570312 100.359375 C 160.644531 100.765625 160.980469 101.089844 161.46875 100.886719 C 171.847656 96.589844 183.300781 96.136719 193.964844 99.679688 C 195.015625 100.027344 195.496094 98.445312 194.574219 98 C 195.902344 95.199219 197.390625 92.457031 199.246094 89.964844 C 201.324219 87.175781 204.597656 83.496094 208.144531 82.632812 C 209.957031 82.191406 210.714844 84.890625 211.367188 86.390625 C 212.199219 88.300781 212.84375 90.292969 213.296875 92.324219 C 214.199219 96.378906 214.171875 100.457031 213.632812 104.554688 C 213.589844 104.871094 213.71875 105.113281 213.917969 105.28125 C 213.933594 105.371094 213.972656 105.464844 214.042969 105.554688 C 223.085938 117.34375 228.550781 133.089844 225.136719 147.949219 C 223.570312 154.769531 219.964844 161.117188 213.855469 164.789062 C 210.6875 166.695312 207.152344 167.832031 203.546875 168.578125 C 199.941406 169.328125 196.136719 169.425781 192.585938 170.402344 C 191.578125 170.679688 191.878906 172.023438 192.820312 172.121094 C 200.128906 172.894531 209.320312 170.761719 215.523438 166.84375 C 221.75 162.90625 225.636719 156.410156 227.371094 149.351562 C 227.792969 147.640625 228.09375 145.90625 228.300781 144.152344 C 228.375 144.1875 228.464844 144.210938 228.5625 144.210938 C 238.78125 144.214844 249.09375 143.871094 259.253906 142.710938 C 263.511719 142.226562 267.773438 141.488281 271.777344 139.910156 C 275.953125 138.261719 279.488281 134.539062 284.082031 134.355469 C 284.242188 134.351562 284.382812 134.300781 284.503906 134.222656 C 285.464844 134.507812 286.585938 134.9375 287.253906 135.640625 C 283.882812 134.523438 281.09375 137.96875 279.496094 140.742188 C 279.140625 141.359375 280.042969 141.863281 280.441406 141.292969 C 281.96875 139.105469 284.789062 135.5625 287.714844 137.765625 L 287.703125 137.808594 C 287.515625 138.359375 288.152344 138.785156 288.609375 138.640625 C 290.261719 140.808594 288.996094 143.703125 287.996094 146.089844 M 239.8125 77.578125 C 238.746094 70.519531 235.359375 63.917969 229.578125 59.609375 C 222.714844 54.496094 213.761719 53.238281 205.433594 54.035156 C 200.742188 54.484375 196.300781 55.878906 191.675781 56.625 C 189.058594 57.050781 184.125 56.285156 185.253906 52.421875 C 185.890625 50.230469 188.492188 48.320312 190.335938 47.203125 C 197.324219 42.972656 206.304688 43.496094 214.125 44.082031 C 223.257812 44.765625 231.523438 47.238281 238.253906 53.695312 C 244.335938 59.523438 248.273438 67.320312 249.636719 75.617188 C 253.058594 96.390625 241.878906 115.140625 227.605469 129.171875 C 226.726562 124.824219 225.273438 120.578125 223.324219 116.59375 C 234.910156 107.414062 242.070312 92.492188 239.8125 77.578125 M 289.199219 136.796875 C 289.121094 136.09375 288.808594 135.417969 288.328125 134.855469 C 287.429688 133.808594 286.070312 133.382812 284.769531 133.0625 C 284.671875 132.914062 284.519531 132.789062 284.300781 132.730469 C 280.503906 131.707031 277.234375 135.042969 274.164062 136.722656 C 269.726562 139.144531 264.664062 140.179688 259.691406 140.78125 C 249.382812 142.027344 238.929688 142.460938 228.5625 142.988281 C 228.507812 142.992188 228.464844 143.011719 228.417969 143.023438 C 228.765625 139.199219 228.617188 135.316406 228.027344 131.496094 C 241.652344 119.472656 252.074219 102.804688 252.519531 84.207031 C 252.914062 67.523438 244.027344 50.714844 227.96875 44.5625 C 223.699219 42.925781 219.121094 42.332031 214.589844 42 C 210.230469 41.671875 205.828125 41.472656 201.464844 41.867188 C 197.703125 42.210938 193.945312 42.996094 190.550781 44.710938 C 187.695312 46.15625 184.246094 48.664062 183.246094 51.867188 C 182.253906 55.070312 184.664062 57.917969 187.703125 58.65625 C 192.167969 59.734375 197.371094 57.3125 201.761719 56.601562 C 211.726562 54.996094 223.160156 55.804688 230.761719 63.253906 C 237.8125 70.160156 239.453125 80.992188 237.617188 90.355469 C 235.714844 100.0625 230.125 108.984375 222.8125 115.570312 C 220.832031 111.730469 218.386719 108.15625 215.546875 105 C 215.574219 104.945312 215.589844 104.886719 215.601562 104.824219 C 216.488281 100.078125 216.238281 95.171875 214.960938 90.515625 C 214.328125 88.199219 213.441406 85.949219 212.308594 83.835938 C 211.683594 82.671875 210.953125 80.734375 209.488281 80.457031 C 208.042969 80.183594 206.117188 81.523438 204.964844 82.230469 C 203.175781 83.332031 201.570312 84.714844 200.152344 86.261719 C 197.132812 89.558594 194.953125 93.503906 193.121094 97.554688 C 182.714844 94.554688 171.589844 95.109375 161.550781 99.207031 C 158.6875 92.8125 154.800781 86.957031 149.941406 81.90625 C 149.648438 81.605469 149.140625 81.542969 148.78125 81.757812 C 140.1875 86.878906 134.722656 99.40625 142.324219 107.863281 C 142.429688 107.984375 142.554688 108.054688 142.683594 108.089844 C 135.503906 117.933594 129.777344 130.039062 130.382812 142.117188 C 119.691406 142.714844 109.171875 141.886719 98.980469 138.433594 C 88.316406 134.820312 79.738281 128.066406 70.0625 122.585938 C 69.632812 122.34375 69.222656 122.429688 68.933594 122.667969 C 67.015625 122.414062 65.027344 123.097656 63.609375 124.492188 C 63.414062 124.683594 63.394531 124.90625 63.46875 125.09375 C 63.363281 125.101562 63.253906 125.117188 63.140625 125.132812 C 62.140625 125.304688 61.050781 125.945312 60.429688 126.832031 C 60.269531 126.851562 60.128906 126.949219 60.082031 127.164062 C 60.023438 127.433594 59.984375 127.699219 59.953125 127.964844 C 59.933594 128.074219 59.925781 128.1875 59.925781 128.300781 C 59.410156 135.171875 67.660156 140.3125 73.515625 142.464844 C 84.984375 147.226562 94.648438 155.085938 103.890625 163.253906 C 113.105469 171.398438 122.277344 180.324219 133.351562 185.929688 C 133.664062 186.085938 133.960938 186.03125 134.175781 185.871094 C 135.527344 194.632812 137.617188 203.269531 140.453125 211.695312 C 142.203125 216.878906 144.023438 222.617188 148.113281 226.476562 C 151.625 229.785156 156.703125 231.238281 161.179688 229.152344 C 161.683594 228.914062 161.761719 228.355469 161.578125 227.902344 L 161.695312 227.800781 C 161.957031 227.53125 162.148438 227.230469 162.277344 226.90625 C 166.460938 227.566406 169.265625 222.535156 167.417969 219.003906 C 165.902344 216.105469 162.53125 215.476562 160.011719 216.902344 C 158.128906 208.84375 162.144531 202.269531 165.976562 195.589844 C 176.214844 198.675781 188.3125 201.054688 198.449219 196.460938 C 198.785156 197.238281 199.105469 198.015625 199.394531 198.8125 C 201.535156 204.679688 201.523438 210.242188 200.722656 216.304688 C 199.402344 216.046875 197.84375 216.660156 196.785156 217.601562 C 195.230469 218.980469 193.035156 222.164062 194.671875 224.171875 C 194.382812 225.136719 194.386719 226.160156 194.855469 227.042969 C 195.007812 227.320312 195.265625 227.40625 195.511719 227.371094 C 197.203125 229.84375 203.792969 229.457031 205.828125 229.242188 C 211.394531 228.644531 215.300781 225.253906 217.574219 220.246094 C 220.117188 214.636719 220.929688 208.265625 221.726562 202.210938 C 222.277344 198.027344 223 193.777344 223.582031 189.523438 C 235.289062 181.949219 245.820312 173.109375 256.195312 163.808594 C 259.003906 161.289062 262.003906 158.894531 265.554688 157.511719 C 268.816406 156.242188 272.324219 155.796875 275.730469 155.097656 C 280.933594 154.03125 287.03125 152.011719 289.402344 146.785156 C 289.433594 146.71875 289.453125 146.648438 289.46875 146.578125 C 291.496094 143.703125 291.921875 139.25 289.199219 136.796875 M 195.753906 114.726562 C 196.976562 114.320312 198.226562 114.328125 199.453125 114.636719 C 199.496094 114.765625 199.574219 114.886719 199.703125 114.972656 C 201.542969 116.175781 199.792969 117.441406 198.375 117.671875 C 197.167969 117.871094 195.445312 118.082031 194.261719 117.796875 C 191.375 117.105469 194.585938 115.113281 195.753906 114.726562 M 193.722656 119.246094 C 195.964844 119.535156 200.097656 119.785156 201.605469 117.613281 C 202.402344 116.464844 202.027344 114.03125 200.566406 113.816406 C 200.5 113.683594 200.378906 113.574219 200.199219 113.515625 C 197.730469 112.710938 194.65625 113.039062 192.703125 114.894531 C 191.023438 116.492188 191.207031 118.917969 193.722656 119.246094 " fill-opacity="1" fill-rule="nonzero"/></g><path fill="#f8e5d0" d="M 207.898438 159.476562 C 206.359375 159.476562 204.792969 159.183594 203.285156 158.566406 C 197.050781 156.027344 194.066406 148.925781 196.613281 142.710938 C 198.546875 138.003906 203.101562 135.152344 207.90625 135.152344 C 209.441406 135.152344 211.007812 135.445312 212.515625 136.0625 C 218.75 138.601562 221.738281 145.703125 219.1875 151.917969 C 217.257812 156.625 212.703125 159.476562 207.898438 159.476562 M 150.46875 159.476562 C 148.933594 159.476562 147.367188 159.183594 145.859375 158.566406 C 139.625 156.027344 136.636719 148.925781 139.1875 142.710938 C 141.117188 138.003906 145.671875 135.152344 150.476562 135.152344 C 152.015625 135.152344 153.578125 135.445312 155.089844 136.0625 C 161.324219 138.601562 164.3125 145.703125 161.761719 151.917969 C 159.828125 156.625 155.277344 159.476562 150.46875 159.476562 M 161.0625 118.390625 C 160.070312 118.390625 158.917969 118.105469 158.085938 117.664062 C 156.285156 116.71875 157.371094 115.320312 159.007812 115.140625 C 159.390625 115.101562 159.863281 115.050781 160.34375 115.050781 C 161.015625 115.050781 161.707031 115.144531 162.195312 115.484375 C 162.128906 115.734375 162.175781 116.023438 162.363281 116.210938 C 163.289062 117.148438 163.003906 118.21875 161.527344 118.367188 C 161.378906 118.382812 161.222656 118.390625 161.0625 118.390625 M 195.65625 117.933594 C 195.15625 117.933594 194.675781 117.898438 194.261719 117.796875 C 191.375 117.105469 194.585938 115.113281 195.753906 114.726562 C 196.402344 114.511719 197.054688 114.414062 197.710938 114.414062 C 198.007812 114.414062 198.304688 114.433594 198.601562 114.472656 C 198.710938 114.585938 198.8125 114.714844 198.894531 114.855469 C 199.25 114.96875 199.597656 115.140625 199.917969 115.386719 C 200.304688 115.6875 200.472656 116.113281 200.378906 116.503906 C 200.066406 117.089844 199.167969 117.542969 198.375 117.671875 C 197.589844 117.800781 196.585938 117.933594 195.65625 117.933594 " fill-opacity="1" fill-rule="nonzero"/><path fill="#545454" d="M 160.523438 118.730469 C 158.746094 118.730469 156.628906 117.851562 156.6875 116.144531 C 156.710938 115.34375 157.261719 114.9375 157.921875 114.734375 C 158.292969 114.523438 158.714844 114.425781 159.136719 114.425781 C 159.640625 114.425781 160.144531 114.566406 160.5625 114.824219 C 160.648438 114.820312 160.738281 114.816406 160.824219 114.816406 C 161.535156 114.816406 162.21875 115.023438 162.691406 115.664062 C 163.335938 116.535156 163.222656 117.820312 162.222656 118.371094 C 161.785156 118.609375 161.179688 118.730469 160.523438 118.730469 M 160.34375 115.050781 C 159.863281 115.050781 159.390625 115.101562 159.007812 115.140625 C 157.371094 115.320312 156.285156 116.71875 158.085938 117.664062 C 158.917969 118.105469 160.070312 118.390625 161.0625 118.390625 C 161.222656 118.390625 161.378906 118.382812 161.527344 118.367188 C 163.003906 118.21875 163.289062 117.148438 162.363281 116.210938 C 162.175781 116.023438 162.128906 115.734375 162.195312 115.484375 C 161.707031 115.144531 161.015625 115.050781 160.34375 115.050781 M 196.324219 118.292969 C 195.304688 118.292969 194.28125 118.046875 193.335938 117.5625 C 192.742188 117.265625 192.714844 116.4375 193.132812 115.996094 C 193.714844 115.375 194.445312 114.9375 195.222656 114.679688 C 195.695312 114.28125 196.21875 113.957031 196.824219 113.871094 C 196.925781 113.855469 197.027344 113.847656 197.132812 113.847656 C 197.703125 113.847656 198.222656 114.078125 198.601562 114.472656 C 198.304688 114.433594 198.007812 114.414062 197.710938 114.414062 C 197.054688 114.414062 196.402344 114.511719 195.753906 114.726562 C 194.585938 115.113281 191.375 117.105469 194.261719 117.796875 C 194.675781 117.898438 195.15625 117.933594 195.65625 117.933594 C 196.585938 117.933594 197.589844 117.800781 198.375 117.671875 C 199.167969 117.542969 200.066406 117.089844 200.378906 116.503906 C 200.324219 116.746094 200.171875 116.972656 199.917969 117.15625 C 198.835938 117.917969 197.582031 118.292969 196.324219 118.292969 " fill-opacity="1" fill-rule="nonzero"/><path fill="#ffffff" d="M 196.058594 125.460938 C 191.769531 127.398438 189.910156 132.554688 191.90625 136.980469 C 193.902344 141.402344 198.996094 143.417969 203.285156 141.480469 C 207.570312 139.542969 209.429688 134.386719 207.433594 129.960938 C 205.4375 125.535156 200.34375 123.523438 196.058594 125.460938 Z M 166.65625 129.960938 C 168.652344 134.386719 166.796875 139.542969 162.507812 141.480469 C 158.21875 143.417969 153.128906 141.402344 151.128906 136.980469 C 149.136719 132.554688 150.992188 127.398438 155.28125 125.460938 C 159.566406 123.523438 164.664062 125.535156 166.65625 129.960938 " fill-opacity="1" fill-rule="nonzero"/><path fill="#545454" d="M 213.859375 152.558594 C 210.222656 148.339844 201.914062 147.921875 197.039062 149.625 C 196.429688 149.839844 196.042969 149 196.628906 148.734375 C 201.976562 146.339844 211.644531 145.945312 215.636719 151.273438 C 216.488281 152.414062 214.808594 153.65625 213.859375 152.558594 Z M 164.140625 149.59375 C 159.328125 148.617188 151.730469 150.1875 149.15625 154.828125 C 148.480469 156.03125 146.699219 155.054688 147.277344 153.816406 C 149.980469 148.046875 158.976562 147.074219 164.351562 148.667969 C 164.941406 148.84375 164.746094 149.71875 164.140625 149.59375 Z M 165.796875 145.347656 C 166.25 145.796875 165.585938 146.519531 165.121094 146.082031 C 160.671875 141.992188 154.640625 140.960938 148.820312 141.671875 C 147.546875 141.828125 147.195312 139.71875 148.433594 139.472656 C 155.109375 138.117188 161.105469 140.691406 165.796875 145.347656 Z M 165.597656 138.808594 C 164.769531 139.558594 163.941406 139.863281 163.628906 139.96875 C 160.972656 140.855469 157.765625 139.601562 155.96875 137.375 C 153.625 134.46875 154.472656 130.886719 154.621094 130.273438 C 155.125 128.125 156.324219 126.707031 156.96875 126.042969 C 154.691406 126.925781 153.675781 128.871094 152.011719 130.652344 C 151.277344 131.425781 149.898438 130.632812 150.019531 129.648438 C 150.433594 125.941406 154.863281 123.441406 158.316406 123.332031 C 159.589844 123.292969 160.773438 123.496094 161.851562 123.910156 C 162.292969 124.078125 165.324219 125.28125 166.910156 128.539062 C 168.546875 131.90625 168.164062 136.496094 165.597656 138.808594 Z M 194.738281 139.941406 C 191.347656 138.101562 189.769531 133.96875 190.554688 130.730469 C 190.136719 130.738281 189.660156 130.4375 189.769531 130.042969 C 190.789062 126.480469 193.648438 123.828125 198.203125 123.1875 C 202.324219 122.613281 208.398438 124.207031 210.121094 127.792969 C 210.589844 128.742188 209.222656 129.800781 208.097656 129.183594 C 205.535156 127.75 203.6875 126.027344 200.703125 125.605469 C 203.601562 127.613281 204.328125 132.03125 203.828125 134.53125 C 203.1875 137.78125 199.582031 142.5625 194.738281 139.941406 Z M 211.597656 139.4375 C 205.324219 139.613281 199.179688 141.546875 195.308594 146.28125 C 194.90625 146.785156 194.0625 146.171875 194.453125 145.65625 C 198.464844 140.320312 204.269531 136.855469 211.566406 137.191406 C 212.917969 137.25 212.96875 139.402344 211.597656 139.4375 Z M 177.363281 150.164062 C 176.824219 149.320312 176.453125 148.472656 175.800781 147.78125 C 176.289062 147.5625 176.738281 147.292969 177.113281 146.976562 C 177.882812 146.328125 178.417969 145.5 178.734375 144.597656 C 179.386719 145.636719 180.359375 146.46875 181.578125 146.90625 C 181.792969 146.984375 182.027344 147.042969 182.265625 147.09375 C 181.824219 149.207031 179.082031 152.828125 177.363281 150.164062 Z M 187.105469 144.167969 C 185.429688 145.011719 184.246094 146.140625 182.199219 145.578125 C 180.253906 145.042969 179.097656 143.183594 179.019531 141.253906 C 179.816406 141.265625 180.632812 140.964844 181.398438 140.230469 C 182.347656 139.320312 182.734375 137.726562 181.859375 136.628906 C 181.40625 136.066406 180.78125 135.972656 180.109375 135.949219 C 178.929688 135.910156 177.730469 135.988281 176.550781 136.007812 C 176.28125 136.011719 176.078125 136.113281 175.9375 136.269531 L 175.910156 136.261719 C 175.222656 136.054688 174.5625 136.738281 174.757812 137.417969 C 175.195312 138.96875 176.382812 140.421875 177.792969 141 L 177.792969 141.042969 C 177.773438 141.539062 177.8125 142.035156 177.910156 142.515625 C 177.832031 143.796875 177.273438 145.027344 176.230469 145.851562 C 174.582031 147.15625 173.003906 146.695312 171.15625 146.34375 C 170.59375 146.234375 170.042969 146.941406 170.550781 147.390625 C 171.546875 148.277344 172.972656 148.484375 174.328125 148.242188 C 174.367188 148.292969 174.417969 148.34375 174.484375 148.390625 C 176.28125 149.660156 176.316406 153.039062 179.214844 152.628906 C 181.390625 152.320312 183.457031 149.394531 183.730469 147.214844 C 185.484375 147.15625 187.296875 146.398438 187.941406 144.8125 C 188.148438 144.3125 187.5 143.972656 187.105469 144.167969 " fill-opacity="1" fill-rule="nonzero"/><g fill="#545454" fill-opacity="1"><g transform="translate(45.643629, 295.071035)"><g><path d="M 28.324219 -10.671875 C 24.191406 -10.449219 20.058594 -10.28125 15.921875 -10.113281 C 21.230469 -16.035156 27.207031 -21.453125 31.566406 -28.15625 C 33.464844 -31.007812 30.949219 -34.246094 27.988281 -34.472656 C 22.460938 -34.863281 16.984375 -35.085938 11.507812 -35.085938 C 6.089844 -35.085938 6.089844 -26.707031 11.507812 -26.707031 C 14.300781 -26.707031 17.152344 -26.648438 19.945312 -26.539062 C 14.527344 -20.167969 8.15625 -14.582031 3.351562 -7.597656 C 1.621094 -5.027344 3.964844 -1.171875 6.984375 -1.339844 C 14.078125 -1.621094 21.230469 -1.957031 28.324219 -2.289062 C 33.6875 -2.515625 33.6875 -10.894531 28.324219 -10.671875 Z M 28.324219 -10.671875 "/></g></g></g><g fill="#545454" fill-opacity="1"><g transform="translate(80.840794, 295.071035)"><g><path d="M 31.0625 -35.53125 C 26.480469 -43.074219 14.527344 -44.023438 8.546875 -37.933594 C 2.683594 -32.90625 1.84375 -21.230469 3.519531 -14.695312 C 4.691406 -10.222656 7.652344 -5.53125 12.234375 -4.078125 C 16.984375 -2.515625 22.234375 -4.246094 25.980469 -7.320312 C 29.777344 -10.503906 32.125 -15.140625 32.90625 -20 C 33.632812 -24.804688 33.6875 -31.230469 31.0625 -35.53125 Z M 20.894531 -13.800781 C 20.726562 -13.6875 20.617188 -13.574219 20.449219 -13.410156 C 18.660156 -11.898438 15.8125 -11.285156 13.910156 -12.738281 C 12.683594 -13.632812 12.125 -15.140625 11.730469 -16.59375 C 11.171875 -18.996094 11.0625 -21.507812 11.339844 -23.96875 C 11.621094 -26.203125 12.179688 -29.050781 13.464844 -30.894531 C 14.636719 -32.515625 16.59375 -33.519531 18.605469 -33.578125 C 22.066406 -33.632812 24.304688 -31.285156 24.695312 -28.046875 C 25.363281 -23.128906 24.636719 -17.375 20.894531 -13.800781 Z M 20.894531 -13.800781 "/></g></g></g><g fill="#545454" fill-opacity="1"><g transform="translate(117.043587, 295.071035)"><g><path d="M 31.0625 -35.53125 C 26.480469 -43.074219 14.527344 -44.023438 8.546875 -37.933594 C 2.683594 -32.90625 1.84375 -21.230469 3.519531 -14.695312 C 4.691406 -10.222656 7.652344 -5.53125 12.234375 -4.078125 C 16.984375 -2.515625 22.234375 -4.246094 25.980469 -7.320312 C 29.777344 -10.503906 32.125 -15.140625 32.90625 -20 C 33.632812 -24.804688 33.6875 -31.230469 31.0625 -35.53125 Z M 20.894531 -13.800781 C 20.726562 -13.6875 20.617188 -13.574219 20.449219 -13.410156 C 18.660156 -11.898438 15.8125 -11.285156 13.910156 -12.738281 C 12.683594 -13.632812 12.125 -15.140625 11.730469 -16.59375 C 11.171875 -18.996094 11.0625 -21.507812 11.339844 -23.96875 C 11.621094 -26.203125 12.179688 -29.050781 13.464844 -30.894531 C 14.636719 -32.515625 16.59375 -33.519531 18.605469 -33.578125 C 22.066406 -33.632812 24.304688 -31.285156 24.695312 -28.046875 C 25.363281 -23.128906 24.636719 -17.375 20.894531 -13.800781 Z M 20.894531 -13.800781 "/></g></g></g><g fill="#545454" fill-opacity="1"><g transform="translate(153.246381, 295.071035)"><g><path d="M 25.421875 -38.4375 C 19.21875 -39.21875 13.015625 -39.332031 6.761719 -38.71875 C 1.453125 -38.15625 1.398438 -29.777344 6.761719 -30.335938 C 8.4375 -30.503906 10.054688 -30.617188 11.675781 -30.671875 C 11.171875 -22.515625 10.726562 -14.300781 10.222656 -6.144531 C 9.890625 -0.78125 18.269531 -0.78125 18.605469 -6.144531 C 19.105469 -14.300781 19.554688 -22.402344 20.058594 -30.558594 C 21.84375 -30.449219 23.632812 -30.28125 25.421875 -30.058594 C 30.785156 -29.386719 30.726562 -37.765625 25.421875 -38.4375 Z M 25.421875 -38.4375 "/></g></g></g><g fill="#545454" fill-opacity="1"><g transform="translate(185.482513, 295.071035)"><g><path d="M 31.0625 -35.53125 C 26.480469 -43.074219 14.527344 -44.023438 8.546875 -37.933594 C 2.683594 -32.90625 1.84375 -21.230469 3.519531 -14.695312 C 4.691406 -10.222656 7.652344 -5.53125 12.234375 -4.078125 C 16.984375 -2.515625 22.234375 -4.246094 25.980469 -7.320312 C 29.777344 -10.503906 32.125 -15.140625 32.90625 -20 C 33.632812 -24.804688 33.6875 -31.230469 31.0625 -35.53125 Z M 20.894531 -13.800781 C 20.726562 -13.6875 20.617188 -13.574219 20.449219 -13.410156 C 18.660156 -11.898438 15.8125 -11.285156 13.910156 -12.738281 C 12.683594 -13.632812 12.125 -15.140625 11.730469 -16.59375 C 11.171875 -18.996094 11.0625 -21.507812 11.339844 -23.96875 C 11.621094 -26.203125 12.179688 -29.050781 13.464844 -30.894531 C 14.636719 -32.515625 16.59375 -33.519531 18.605469 -33.578125 C 22.066406 -33.632812 24.304688 -31.285156 24.695312 -28.046875 C 25.363281 -23.128906 24.636719 -17.375 20.894531 -13.800781 Z M 20.894531 -13.800781 "/></g></g></g><g fill="#545454" fill-opacity="1"><g transform="translate(221.685306, 295.071035)"><g><path d="M 22.570312 -38.15625 C 19.164062 -39.5 15.140625 -40.058594 11.675781 -38.773438 C 7.710938 -37.265625 6.3125 -33.914062 5.867188 -29.945312 C 4.691406 -19.945312 3.800781 -9.890625 2.792969 0.113281 C 2.234375 5.476562 10.613281 5.476562 11.171875 0.113281 C 11.621094 -4.132812 12.011719 -8.378906 12.457031 -12.570312 C 19.722656 -10.894531 28.046875 -13.574219 31.398438 -20.671875 C 35.085938 -28.382812 29.667969 -35.308594 22.570312 -38.15625 Z M 13.351562 -21.0625 C 13.519531 -22.625 13.632812 -24.246094 13.800781 -25.8125 C 13.910156 -26.984375 13.742188 -28.941406 14.246094 -29.945312 C 14.75 -31.007812 14.132812 -30.785156 15.363281 -31.117188 C 18.214844 -31.957031 24.527344 -28.773438 24.246094 -25.53125 C 23.855469 -20.390625 17.039062 -19.945312 13.351562 -21.0625 Z M 13.351562 -21.0625 "/></g></g></g><g fill="#545454" fill-opacity="1"><g transform="translate(257.105946, 295.071035)"><g><path d="M 5.308594 -34.414062 C 4.191406 -24.359375 3.351562 -14.246094 2.792969 -4.132812 C 2.457031 1.285156 10.839844 1.230469 11.171875 -4.132812 C 11.730469 -14.246094 12.570312 -24.359375 13.6875 -34.414062 C 14.246094 -39.777344 5.867188 -39.777344 5.308594 -34.414062 Z M 5.308594 -34.414062 "/></g></g></g><g fill="#545454" fill-opacity="1"><g transform="translate(273.643016, 295.071035)"><g><path d="M 28.882812 -24.46875 C 28.714844 -29.332031 28.605469 -42.070312 20.335938 -38.550781 C 14.972656 -36.257812 10.894531 -29.273438 8.605469 -24.246094 C 5.585938 -17.429688 4.132812 -10.222656 2.847656 -2.960938 C 1.898438 2.347656 9.945312 4.582031 10.894531 -0.726562 C 11.398438 -3.519531 11.898438 -6.367188 12.515625 -9.164062 L 20.894531 -8.828125 C 21.007812 -6.59375 21.0625 -4.359375 21.117188 -2.179688 C 21.230469 3.242188 29.609375 3.242188 29.441406 -2.179688 C 29.273438 -9.609375 29.164062 -17.039062 28.882812 -24.46875 Z M 15.195312 -18.378906 C 16.144531 -20.839844 17.375 -23.296875 18.828125 -25.476562 C 19.332031 -26.257812 19.890625 -26.984375 20.449219 -27.65625 C 20.503906 -26.539062 20.449219 -25.421875 20.503906 -24.46875 C 20.617188 -22.066406 20.671875 -19.664062 20.726562 -17.207031 C 18.773438 -17.261719 16.816406 -17.375 14.859375 -17.429688 C 14.972656 -17.765625 15.085938 -18.046875 15.195312 -18.378906 Z M 15.195312 -18.378906 "/></g></g></g><g fill="#545454" fill-opacity="1"><g transform="translate(103.702865, 321.551887)"><g><path d="M 7.703125 -14.125 C 8.929688 -14.125 10 -13.921875 10.90625 -13.515625 C 11.8125 -13.109375 12.503906 -12.53125 12.984375 -11.78125 C 13.472656 -11.03125 13.71875 -10.132812 13.71875 -9.09375 C 13.71875 -8.070312 13.472656 -7.179688 12.984375 -6.421875 C 12.503906 -5.660156 11.8125 -5.078125 10.90625 -4.671875 C 10 -4.273438 8.929688 -4.078125 7.703125 -4.078125 L 4.515625 -4.078125 L 4.515625 0 L 1.890625 0 L 1.890625 -14.125 Z M 7.578125 -6.296875 C 8.722656 -6.296875 9.59375 -6.535156 10.1875 -7.015625 C 10.78125 -7.503906 11.078125 -8.195312 11.078125 -9.09375 C 11.078125 -10 10.78125 -10.691406 10.1875 -11.171875 C 9.59375 -11.660156 8.722656 -11.90625 7.578125 -11.90625 L 4.515625 -11.90625 L 4.515625 -6.296875 Z M 7.578125 -6.296875 "/></g></g></g><g fill="#545454" fill-opacity="1"><g transform="translate(120.362667, 321.551887)"><g><path d="M 12.484375 -2.203125 L 12.484375 0 L 1.890625 0 L 1.890625 -14.125 L 12.203125 -14.125 L 12.203125 -11.921875 L 4.515625 -11.921875 L 4.515625 -8.25 L 11.34375 -8.25 L 11.34375 -6.09375 L 4.515625 -6.09375 L 4.515625 -2.203125 Z M 12.484375 -2.203125 "/></g></g></g><g fill="#545454" fill-opacity="1"><g transform="translate(135.893034, 321.551887)"><g><path d="M 4.765625 -11.90625 L 0.078125 -11.90625 L 0.078125 -14.125 L 12.0625 -14.125 L 12.0625 -11.90625 L 7.390625 -11.90625 L 7.390625 0 L 4.765625 0 Z M 4.765625 -11.90625 "/></g></g></g><g fill="#545454" fill-opacity="1"><g transform="translate(150.05195, 321.551887)"><g><path d="M 6.28125 0.203125 C 5.1875 0.203125 4.128906 0.0507812 3.109375 -0.25 C 2.097656 -0.5625 1.296875 -0.976562 0.703125 -1.5 L 1.609375 -3.53125 C 2.191406 -3.070312 2.898438 -2.695312 3.734375 -2.40625 C 4.578125 -2.125 5.425781 -1.984375 6.28125 -1.984375 C 7.320312 -1.984375 8.101562 -2.148438 8.625 -2.484375 C 9.144531 -2.816406 9.40625 -3.257812 9.40625 -3.8125 C 9.40625 -4.21875 9.257812 -4.550781 8.96875 -4.8125 C 8.675781 -5.070312 8.304688 -5.273438 7.859375 -5.421875 C 7.421875 -5.566406 6.816406 -5.738281 6.046875 -5.9375 C 4.972656 -6.1875 4.101562 -6.4375 3.4375 -6.6875 C 2.769531 -6.945312 2.195312 -7.347656 1.71875 -7.890625 C 1.25 -8.441406 1.015625 -9.179688 1.015625 -10.109375 C 1.015625 -10.890625 1.222656 -11.597656 1.640625 -12.234375 C 2.066406 -12.867188 2.707031 -13.375 3.5625 -13.75 C 4.414062 -14.132812 5.460938 -14.328125 6.703125 -14.328125 C 7.554688 -14.328125 8.398438 -14.21875 9.234375 -14 C 10.066406 -13.78125 10.785156 -13.472656 11.390625 -13.078125 L 10.5625 -11.03125 C 9.945312 -11.394531 9.300781 -11.671875 8.625 -11.859375 C 7.957031 -12.046875 7.304688 -12.140625 6.671875 -12.140625 C 5.640625 -12.140625 4.867188 -11.960938 4.359375 -11.609375 C 3.859375 -11.265625 3.609375 -10.804688 3.609375 -10.234375 C 3.609375 -9.828125 3.753906 -9.492188 4.046875 -9.234375 C 4.335938 -8.984375 4.703125 -8.78125 5.140625 -8.625 C 5.585938 -8.476562 6.191406 -8.3125 6.953125 -8.125 C 8.003906 -7.882812 8.863281 -7.632812 9.53125 -7.375 C 10.207031 -7.113281 10.785156 -6.710938 11.265625 -6.171875 C 11.742188 -5.628906 11.984375 -4.90625 11.984375 -4 C 11.984375 -3.21875 11.769531 -2.507812 11.34375 -1.875 C 10.925781 -1.238281 10.285156 -0.734375 9.421875 -0.359375 C 8.554688 0.015625 7.507812 0.203125 6.28125 0.203125 Z M 6.28125 0.203125 "/></g></g></g><g fill="#545454" fill-opacity="1"><g transform="translate(164.755407, 321.551887)"><g/></g></g><g fill="#545454" fill-opacity="1"><g transform="translate(172.33938, 321.551887)"><g><path d="M 4.515625 -11.921875 L 4.515625 -7.625 L 11.34375 -7.625 L 11.34375 -5.40625 L 4.515625 -5.40625 L 4.515625 0 L 1.890625 0 L 1.890625 -14.125 L 12.203125 -14.125 L 12.203125 -11.921875 Z M 4.515625 -11.921875 "/></g></g></g><g fill="#545454" fill-opacity="1"><g transform="translate(187.204188, 321.551887)"><g><path d="M 11.046875 -3.265625 L 4 -3.265625 L 2.609375 0 L -0.09375 0 L 6.25 -14.125 L 8.828125 -14.125 L 15.203125 0 L 12.46875 0 Z M 10.1875 -5.328125 L 7.53125 -11.5 L 4.875 -5.328125 Z M 10.1875 -5.328125 "/></g></g></g><g fill="#545454" fill-opacity="1"><g transform="translate(204.327866, 321.551887)"><g><path d="M 8.4375 0.203125 C 7.007812 0.203125 5.71875 -0.109375 4.5625 -0.734375 C 3.414062 -1.359375 2.515625 -2.222656 1.859375 -3.328125 C 1.210938 -4.429688 0.890625 -5.675781 0.890625 -7.0625 C 0.890625 -8.445312 1.21875 -9.691406 1.875 -10.796875 C 2.53125 -11.898438 3.429688 -12.765625 4.578125 -13.390625 C 5.734375 -14.015625 7.023438 -14.328125 8.453125 -14.328125 C 9.609375 -14.328125 10.660156 -14.125 11.609375 -13.71875 C 12.566406 -13.3125 13.378906 -12.726562 14.046875 -11.96875 L 12.34375 -10.375 C 11.320312 -11.46875 10.066406 -12.015625 8.578125 -12.015625 C 7.609375 -12.015625 6.738281 -11.800781 5.96875 -11.375 C 5.207031 -10.957031 4.609375 -10.375 4.171875 -9.625 C 3.742188 -8.875 3.53125 -8.019531 3.53125 -7.0625 C 3.53125 -6.101562 3.742188 -5.25 4.171875 -4.5 C 4.609375 -3.75 5.207031 -3.160156 5.96875 -2.734375 C 6.738281 -2.304688 7.609375 -2.09375 8.578125 -2.09375 C 10.066406 -2.09375 11.320312 -2.648438 12.34375 -3.765625 L 14.046875 -2.15625 C 13.378906 -1.394531 12.566406 -0.8125 11.609375 -0.40625 C 10.648438 0 9.59375 0.203125 8.4375 0.203125 Z M 8.4375 0.203125 "/></g></g></g><g fill="#545454" fill-opacity="1"><g transform="translate(221.007843, 321.551887)"><g><path d="M 4.765625 -11.90625 L 0.078125 -11.90625 L 0.078125 -14.125 L 12.0625 -14.125 L 12.0625 -11.90625 L 7.390625 -11.90625 L 7.390625 0 L 4.765625 0 Z M 4.765625 -11.90625 "/></g></g></g><g fill="#545454" fill-opacity="1"><g transform="translate(235.166759, 321.551887)"><g><path d="M 6.28125 0.203125 C 5.1875 0.203125 4.128906 0.0507812 3.109375 -0.25 C 2.097656 -0.5625 1.296875 -0.976562 0.703125 -1.5 L 1.609375 -3.53125 C 2.191406 -3.070312 2.898438 -2.695312 3.734375 -2.40625 C 4.578125 -2.125 5.425781 -1.984375 6.28125 -1.984375 C 7.320312 -1.984375 8.101562 -2.148438 8.625 -2.484375 C 9.144531 -2.816406 9.40625 -3.257812 9.40625 -3.8125 C 9.40625 -4.21875 9.257812 -4.550781 8.96875 -4.8125 C 8.675781 -5.070312 8.304688 -5.273438 7.859375 -5.421875 C 7.421875 -5.566406 6.816406 -5.738281 6.046875 -5.9375 C 4.972656 -6.1875 4.101562 -6.4375 3.4375 -6.6875 C 2.769531 -6.945312 2.195312 -7.347656 1.71875 -7.890625 C 1.25 -8.441406 1.015625 -9.179688 1.015625 -10.109375 C 1.015625 -10.890625 1.222656 -11.597656 1.640625 -12.234375 C 2.066406 -12.867188 2.707031 -13.375 3.5625 -13.75 C 4.414062 -14.132812 5.460938 -14.328125 6.703125 -14.328125 C 7.554688 -14.328125 8.398438 -14.21875 9.234375 -14 C 10.066406 -13.78125 10.785156 -13.472656 11.390625 -13.078125 L 10.5625 -11.03125 C 9.945312 -11.394531 9.300781 -11.671875 8.625 -11.859375 C 7.957031 -12.046875 7.304688 -12.140625 6.671875 -12.140625 C 5.640625 -12.140625 4.867188 -11.960938 4.359375 -11.609375 C 3.859375 -11.265625 3.609375 -10.804688 3.609375 -10.234375 C 3.609375 -9.828125 3.753906 -9.492188 4.046875 -9.234375 C 4.335938 -8.984375 4.703125 -8.78125 5.140625 -8.625 C 5.585938 -8.476562 6.191406 -8.3125 6.953125 -8.125 C 8.003906 -7.882812 8.863281 -7.632812 9.53125 -7.375 C 10.207031 -7.113281 10.785156 -6.710938 11.265625 -6.171875 C 11.742188 -5.628906 11.984375 -4.90625 11.984375 -4 C 11.984375 -3.21875 11.769531 -2.507812 11.34375 -1.875 C 10.925781 -1.238281 10.285156 -0.734375 9.421875 -0.359375 C 8.554688 0.015625 7.507812 0.203125 6.28125 0.203125 Z M 6.28125 0.203125 "/></g></g></g></svg>