<svg xmlns="http://www.w3.org/2000/svg" xmlns:xlink="http://www.w3.org/1999/xlink" width="2000" zoomAndPan="magnify" viewBox="0 0 1500 374.999991" height="500" preserveAspectRatio="xMidYMid meet" version="1.0"><defs><g/></defs><path fill="#c2a476" d="M 451.238281 206.371094 C 451.21875 206.519531 451.179688 206.648438 451.117188 206.789062 C 446.460938 217.027344 434.507812 220.988281 424.300781 223.082031 C 417.617188 224.445312 410.734375 225.316406 404.347656 227.816406 C 397.375 230.519531 391.5 235.21875 385.992188 240.15625 C 365.640625 258.402344 344.988281 275.730469 322.023438 290.570312 C 320.878906 298.921875 319.46875 307.257812 318.386719 315.457031 C 316.816406 327.324219 315.230469 339.820312 310.234375 350.8125 C 305.785156 360.632812 298.113281 367.289062 287.207031 368.453125 C 283.210938 368.882812 270.28125 369.632812 266.96875 364.785156 C 266.488281 364.867188 265.976562 364.695312 265.683594 364.140625 C 264.761719 362.40625 264.753906 360.402344 265.324219 358.507812 C 262.109375 354.570312 266.417969 348.335938 269.460938 345.632812 C 271.546875 343.789062 274.597656 342.574219 277.191406 343.085938 C 278.769531 331.199219 278.777344 320.296875 274.578125 308.789062 C 274.011719 307.238281 273.386719 305.703125 272.726562 304.183594 C 252.855469 313.191406 229.128906 308.519531 209.039062 302.480469 C 201.527344 315.566406 193.652344 328.453125 197.34375 344.257812 C 202.277344 341.472656 208.898438 342.695312 211.871094 348.375 C 215.5 355.300781 209.992188 365.175781 201.785156 363.871094 C 201.535156 364.515625 201.15625 365.105469 200.648438 365.625 L 200.414062 365.824219 C 200.765625 366.71875 200.625 367.808594 199.632812 368.28125 C 190.851562 372.371094 180.894531 369.511719 174.011719 363.03125 C 165.980469 355.460938 162.417969 344.207031 158.988281 334.054688 C 153.421875 317.53125 149.320312 300.59375 146.671875 283.414062 C 146.238281 283.726562 145.667969 283.835938 145.050781 283.535156 C 123.335938 272.542969 105.347656 255.042969 87.269531 239.066406 C 69.144531 223.054688 50.195312 207.648438 27.699219 198.308594 C 16.210938 194.089844 0.0390625 184.007812 1.046875 170.535156 C 1.046875 170.316406 1.066406 170.097656 1.097656 169.875 C 1.15625 169.367188 1.238281 168.832031 1.351562 168.3125 C 1.441406 167.890625 1.722656 167.691406 2.03125 167.652344 C 3.25 165.917969 5.394531 164.664062 7.347656 164.324219 C 7.570312 164.292969 7.777344 164.273438 8 164.253906 C 7.847656 163.878906 7.890625 163.441406 8.269531 163.070312 C 11.054688 160.34375 14.949219 159.003906 18.714844 159.492188 C 19.277344 159.019531 20.089844 158.851562 20.929688 159.332031 C 39.898438 170.085938 56.722656 183.3125 77.648438 190.398438 C 97.625 197.175781 118.257812 198.796875 139.230469 197.636719 C 138.050781 173.941406 149.277344 150.210938 163.355469 130.910156 C 163.105469 130.839844 162.867188 130.699219 162.65625 130.46875 C 147.742188 113.878906 158.460938 89.316406 175.316406 79.277344 C 176.015625 78.867188 177.019531 78.976562 177.589844 79.578125 C 187.128906 89.480469 194.746094 100.953125 200.355469 113.5 C 220.054688 105.457031 241.867188 104.371094 262.28125 110.253906 C 265.875 102.308594 270.140625 94.566406 276.070312 88.117188 C 278.847656 85.078125 282 82.375 285.515625 80.207031 C 287.769531 78.816406 291.546875 76.199219 294.378906 76.726562 C 297.253906 77.273438 298.683594 81.070312 299.90625 83.355469 C 302.132812 87.503906 303.871094 91.914062 305.117188 96.453125 C 307.621094 105.585938 308.109375 115.203125 306.375 124.503906 C 306.347656 124.632812 306.308594 124.746094 306.265625 124.855469 C 311.835938 131.039062 316.621094 138.046875 320.507812 145.570312 C 334.855469 132.664062 345.820312 115.164062 349.550781 96.132812 C 353.148438 77.78125 349.9375 56.546875 336.105469 42.996094 C 321.1875 28.394531 298.773438 26.808594 279.226562 29.957031 C 270.609375 31.351562 260.40625 36.097656 251.652344 33.984375 C 245.695312 32.542969 240.96875 26.949219 242.917969 20.675781 C 244.871094 14.390625 251.644531 9.46875 257.242188 6.644531 C 263.902344 3.277344 271.265625 1.734375 278.648438 1.0625 C 287.199219 0.289062 295.832031 0.679688 304.386719 1.324219 C 313.277344 1.984375 322.261719 3.148438 330.625 6.347656 C 362.121094 18.410156 379.558594 51.375 378.777344 84.078125 C 377.910156 120.554688 357.464844 153.226562 330.734375 176.800781 C 331.894531 184.296875 332.1875 191.902344 331.503906 199.414062 C 331.605469 199.378906 331.683594 199.339844 331.796875 199.339844 C 352.128906 198.296875 372.617188 197.453125 392.839844 195.011719 C 402.59375 193.828125 412.53125 191.800781 421.238281 187.054688 C 427.253906 183.757812 433.660156 177.210938 441.113281 179.226562 C 441.546875 179.335938 441.835938 179.574219 442.027344 179.878906 C 444.582031 180.5 447.246094 181.339844 449.003906 183.382812 C 449.949219 184.488281 450.570312 185.820312 450.707031 187.195312 C 456.054688 192.011719 455.226562 200.742188 451.238281 206.371094 " fill-opacity="1" fill-rule="nonzero"/><path fill="#545454" d="M 200.320312 151.058594 C 198.199219 151.273438 195.460938 150.683594 193.566406 149.683594 C 190.039062 147.824219 192.164062 145.089844 195.375 144.738281 C 197.171875 144.539062 199.980469 144.261719 201.625 145.410156 C 201.492188 145.898438 201.589844 146.464844 201.957031 146.835938 C 203.769531 148.667969 203.214844 150.765625 200.320312 151.058594 M 204.359375 144.550781 C 201.933594 141.078125 195.027344 140.652344 191.5625 142.339844 C 187.105469 144.511719 187.101562 149.859375 191.164062 152.402344 C 194.78125 154.664062 201.808594 156.125 205.15625 152.714844 C 207.21875 150.609375 207.226562 145.472656 204.359375 144.550781 M 275.257812 115.429688 C 280.371094 116.558594 287.734375 118.140625 291.511719 122.023438 C 292.257812 122.789062 291.5 124.011719 290.492188 123.777344 C 288.027344 123.207031 285.792969 121.652344 283.472656 120.640625 C 280.605469 119.394531 277.683594 118.390625 274.667969 117.570312 C 273.277344 117.195312 273.871094 115.121094 275.257812 115.429688 M 185.699219 124.195312 C 181.726562 125.429688 178.195312 126.523438 174.769531 128.988281 C 173.5625 129.851562 172.449219 127.875 173.613281 127.015625 C 176.988281 124.519531 181.160156 122.363281 185.40625 122.046875 C 186.6875 121.949219 186.824219 123.847656 185.699219 124.195312 M 448.355469 205.414062 C 440.734375 216.75 427.917969 218.6875 415.433594 221.171875 C 402.761719 223.6875 393.046875 229.058594 383.472656 237.640625 C 363.910156 255.171875 344.023438 271.785156 322.511719 286.820312 C 323.191406 281.398438 323.71875 275.984375 323.925781 270.613281 C 323.992188 268.875 321.238281 268.464844 320.867188 270.195312 C 319.457031 276.714844 318.707031 283.460938 318.007812 290.183594 C 317.867188 290.476562 317.839844 290.804688 317.914062 291.105469 C 317.566406 294.433594 317.226562 297.757812 316.816406 301.039062 C 315.410156 312.199219 314.265625 323.449219 311.832031 334.449219 C 309.839844 343.460938 307.101562 353.558594 299.972656 359.949219 C 295.726562 363.75 290.261719 365.261719 284.6875 365.601562 C 282.019531 365.761719 269.925781 366.339844 268.277344 362.578125 C 268.40625 359.539062 268.503906 356.671875 271.441406 354.703125 C 274.386719 352.730469 278.125 353.25 280.835938 355.316406 C 281.78125 356.039062 283.03125 354.429688 282.117188 353.660156 C 278.644531 350.75 273.644531 350.027344 269.714844 352.550781 C 268.972656 353.023438 268.273438 353.644531 267.648438 354.359375 C 267.667969 354.214844 267.691406 354.070312 267.722656 353.925781 C 268.109375 352.261719 269.035156 350.75 270.101562 349.4375 C 272 347.097656 276.855469 343.253906 279.058594 347.4375 C 279.777344 348.8125 281.789062 347.601562 281.117188 346.226562 C 280.695312 345.363281 280.15625 344.695312 279.546875 344.195312 C 284.476562 333.792969 282.652344 320.898438 279.097656 310.339844 C 278.15625 307.558594 277.042969 304.863281 275.796875 302.226562 C 276.195312 301.210938 275.566406 299.828125 274.507812 299.601562 C 270.472656 291.742188 265.308594 284.445312 260.050781 277.378906 C 259.09375 276.089844 256.902344 277.296875 257.847656 278.664062 C 262.722656 285.695312 267.394531 292.90625 271.105469 300.609375 C 261.6875 303.980469 252.289062 305.710938 242.121094 305.320312 C 231.417969 304.90625 220.871094 302.558594 210.523438 299.875 C 214.066406 293.601562 217.347656 287.230469 219.058594 280.429688 C 219.5 278.675781 216.792969 277.34375 216.011719 279.140625 C 210.945312 290.820312 204.242188 301.550781 198.964844 313.105469 C 194.214844 323.507812 191.492188 334.8125 194.695312 346.066406 L 194.769531 346.257812 C 194.371094 346.671875 193.992188 347.109375 193.652344 347.59375 C 192.882812 348.695312 194.691406 350.113281 195.53125 349.042969 C 199.019531 344.585938 205.976562 344.230469 208.863281 349.605469 C 210.160156 352.023438 210.191406 354.925781 208.621094 357.222656 C 207.007812 359.59375 204.726562 360.324219 202.152344 360.859375 C 201.582031 355.097656 194.714844 348.769531 191.03125 354.25 C 190.230469 355.441406 192.109375 356.488281 192.933594 355.363281 C 194.867188 352.71875 197.574219 356.367188 198.320312 358.035156 C 199.21875 360.046875 199.265625 361.863281 198.347656 363.847656 C 198.230469 364.105469 198.191406 364.367188 198.210938 364.621094 L 198.109375 364.652344 C 174.347656 374.640625 164.429688 338.8125 159.566406 323.046875 C 152.6875 300.75 148.183594 277.753906 146.007812 254.519531 C 145.863281 252.992188 143.488281 252.945312 143.582031 254.519531 C 144.109375 263.289062 145 272.011719 146.257812 280.683594 C 124.277344 267.382812 105.554688 250.394531 86.234375 233.613281 C 69.417969 219.003906 51.714844 204.875 30.828125 196.796875 C 30.757812 196.726562 30.675781 196.660156 30.578125 196.601562 C 21.207031 191.296875 3.632812 185.34375 2.917969 172.457031 C 3.25 172.300781 3.539062 172.042969 3.691406 171.683594 C 4.859375 168.910156 6.238281 166.878906 9.621094 167.097656 C 12.363281 167.273438 14.566406 168.925781 16.402344 170.847656 C 17.359375 171.839844 18.753906 170.378906 17.894531 169.355469 C 15.933594 167.019531 13.335938 164.933594 10.351562 164.363281 C 12.644531 162.503906 15.429688 161.808594 18.214844 162.210938 C 18.367188 162.445312 18.585938 162.660156 18.875 162.839844 C 37.949219 174.527344 55.871094 187.652344 77.402344 194.554688 C 97.179688 200.894531 118.820312 203.320312 139.355469 199.761719 C 140.015625 207.84375 142.15625 215.90625 146.15625 223.765625 C 160.421875 251.769531 197.257812 260.777344 226.320312 256.515625 C 228.738281 256.15625 227.980469 252.550781 225.769531 252.429688 C 211.191406 251.636719 196.945312 252.191406 182.800781 247.765625 C 168.574219 243.3125 156.402344 234.328125 149.632812 220.835938 C 134.417969 190.511719 148.929688 156.316406 166.5 130.597656 C 167.09375 129.726562 166.34375 128.9375 165.527344 128.898438 C 165.488281 128.734375 165.429688 128.570312 165.324219 128.40625 C 154.855469 112.132812 160.1875 93.488281 175.945312 83.308594 C 185.003906 92.898438 192.507812 103.578125 198.269531 115.476562 C 198.320312 115.578125 198.378906 115.667969 198.441406 115.75 C 198.585938 116.546875 199.246094 117.183594 200.203125 116.789062 C 220.558594 108.363281 243.023438 107.472656 263.9375 114.417969 C 266 115.101562 266.941406 112 265.132812 111.128906 C 267.738281 105.632812 270.652344 100.261719 274.296875 95.375 C 278.371094 89.90625 284.789062 82.691406 291.746094 81 C 295.300781 80.128906 296.785156 85.421875 298.066406 88.363281 C 299.699219 92.105469 300.960938 96.015625 301.851562 100 C 303.621094 107.945312 303.5625 115.945312 302.511719 123.980469 C 302.429688 124.597656 302.675781 125.074219 303.066406 125.402344 C 303.101562 125.582031 303.179688 125.765625 303.3125 125.941406 C 321.050781 149.050781 331.769531 179.929688 325.070312 209.0625 C 322 222.429688 314.933594 234.882812 302.945312 242.085938 C 296.734375 245.820312 289.796875 248.046875 282.730469 249.511719 C 275.652344 250.984375 268.191406 251.171875 261.230469 253.085938 C 259.253906 253.628906 259.847656 256.265625 261.6875 256.460938 C 276.023438 257.972656 294.054688 253.789062 306.214844 246.109375 C 318.429688 238.390625 326.050781 225.652344 329.453125 211.816406 C 330.28125 208.460938 330.875 205.054688 331.277344 201.621094 C 331.425781 201.6875 331.597656 201.730469 331.792969 201.730469 C 351.835938 201.738281 372.058594 201.066406 391.984375 198.792969 C 400.332031 197.839844 408.699219 196.398438 416.546875 193.300781 C 424.742188 190.066406 431.671875 182.769531 440.679688 182.410156 C 440.996094 182.398438 441.273438 182.300781 441.507812 182.152344 C 443.394531 182.710938 445.59375 183.550781 446.90625 184.925781 C 440.292969 182.734375 434.824219 189.492188 431.691406 194.933594 C 430.992188 196.144531 432.757812 197.128906 433.539062 196.015625 C 436.539062 191.722656 442.070312 184.773438 447.808594 189.09375 L 447.785156 189.179688 C 447.417969 190.261719 448.660156 191.097656 449.558594 190.8125 C 452.804688 195.058594 450.316406 200.738281 448.355469 205.414062 M 353.859375 71.082031 C 351.765625 57.246094 345.125 44.300781 333.785156 35.855469 C 320.324219 25.832031 302.765625 23.359375 286.429688 24.921875 C 277.226562 25.804688 268.515625 28.535156 259.449219 30.003906 C 254.316406 30.832031 244.632812 29.339844 246.847656 21.757812 C 248.101562 17.464844 253.207031 13.71875 256.820312 11.53125 C 270.519531 3.230469 288.132812 4.261719 303.476562 5.40625 C 321.386719 6.75 337.597656 11.601562 350.800781 24.257812 C 362.726562 35.6875 370.449219 50.976562 373.128906 67.238281 C 379.835938 107.96875 357.910156 144.734375 329.917969 172.246094 C 328.1875 163.722656 325.339844 155.394531 321.519531 147.585938 C 344.242188 129.582031 358.28125 100.328125 353.859375 71.082031 M 450.714844 187.195312 C 450.5625 185.820312 449.953125 184.492188 449.003906 183.386719 C 447.25 181.335938 444.582031 180.503906 442.027344 179.871094 C 441.839844 179.578125 441.542969 179.339844 441.109375 179.222656 C 433.664062 177.214844 427.253906 183.757812 421.234375 187.050781 C 412.527344 191.800781 402.597656 193.828125 392.839844 195.007812 C 372.621094 197.449219 352.125 198.300781 331.792969 199.332031 C 331.683594 199.339844 331.601562 199.378906 331.507812 199.40625 C 332.191406 191.90625 331.898438 184.296875 330.738281 176.800781 C 357.460938 153.222656 377.910156 120.550781 378.777344 84.082031 C 379.554688 51.371094 362.125 18.414062 330.628906 6.351562 C 322.257812 3.144531 313.277344 1.980469 304.390625 1.324219 C 295.835938 0.683594 287.203125 0.289062 278.648438 1.066406 C 271.265625 1.738281 263.898438 3.277344 257.242188 6.640625 C 251.640625 9.472656 244.871094 14.394531 242.914062 20.675781 C 240.964844 26.953125 245.699219 32.539062 251.65625 33.980469 C 260.40625 36.097656 270.617188 31.347656 279.226562 29.957031 C 298.773438 26.804688 321.191406 28.390625 336.105469 42.996094 C 349.933594 56.542969 353.148438 77.777344 349.546875 96.136719 C 345.820312 115.167969 334.855469 132.664062 320.511719 145.574219 C 316.625 138.046875 311.835938 131.039062 306.265625 124.851562 C 306.3125 124.746094 306.347656 124.628906 306.371094 124.503906 C 308.113281 115.203125 307.617188 105.582031 305.117188 96.449219 C 303.875 91.914062 302.136719 87.5 299.910156 83.351562 C 298.683594 81.074219 297.257812 77.277344 294.378906 76.730469 C 291.550781 76.195312 287.769531 78.820312 285.511719 80.207031 C 282.003906 82.371094 278.851562 85.078125 276.066406 88.113281 C 270.144531 94.570312 265.875 102.308594 262.277344 110.25 C 241.871094 104.375 220.050781 105.457031 200.359375 113.496094 C 194.75 100.957031 187.128906 89.476562 177.589844 79.570312 C 177.019531 78.980469 176.019531 78.863281 175.320312 79.28125 C 158.460938 89.316406 147.746094 113.882812 162.652344 130.46875 C 162.863281 130.703125 163.105469 130.839844 163.355469 130.914062 C 149.277344 150.210938 138.046875 173.945312 139.230469 197.632812 C 118.261719 198.796875 97.628906 197.171875 77.644531 190.402344 C 56.726562 183.316406 39.90625 170.082031 20.925781 159.332031 C 20.085938 158.855469 19.285156 159.023438 18.714844 159.496094 C 14.953125 159 11.050781 160.335938 8.269531 163.070312 C 7.890625 163.441406 7.847656 163.878906 7.996094 164.25 C 7.785156 164.269531 7.570312 164.292969 7.351562 164.328125 C 5.390625 164.660156 3.25 165.921875 2.035156 167.65625 C 1.722656 167.695312 1.445312 167.890625 1.355469 168.308594 C 1.238281 168.835938 1.160156 169.359375 1.097656 169.878906 C 1.0625 170.09375 1.046875 170.3125 1.042969 170.535156 C 0.0351562 184.011719 16.210938 194.089844 27.699219 198.308594 C 50.191406 207.644531 69.144531 223.054688 87.269531 239.070312 C 105.347656 255.042969 123.332031 272.542969 145.054688 283.53125 C 145.667969 283.839844 146.246094 283.726562 146.671875 283.414062 C 149.324219 300.59375 153.417969 317.53125 158.984375 334.050781 C 162.414062 344.214844 165.984375 355.464844 174.007812 363.03125 C 180.894531 369.515625 190.851562 372.367188 199.632812 368.277344 C 200.625 367.8125 200.773438 366.71875 200.417969 365.824219 L 200.648438 365.625 C 201.160156 365.101562 201.53125 364.511719 201.785156 363.875 C 209.996094 365.171875 215.496094 355.304688 211.867188 348.378906 C 208.894531 342.695312 202.28125 341.46875 197.34375 344.257812 C 193.652344 328.457031 201.527344 315.566406 209.042969 302.476562 C 229.125 308.523438 252.851562 313.1875 272.730469 304.183594 C 273.386719 305.699219 274.015625 307.230469 274.582031 308.792969 C 278.78125 320.296875 278.765625 331.203125 277.191406 343.085938 C 274.597656 342.578125 271.542969 343.785156 269.464844 345.628906 C 266.421875 348.332031 262.113281 354.574219 265.320312 358.511719 C 264.753906 360.40625 264.765625 362.410156 265.683594 364.140625 C 265.980469 364.691406 266.484375 364.859375 266.972656 364.789062 C 270.285156 369.628906 283.207031 368.878906 287.207031 368.453125 C 298.117188 367.285156 305.78125 360.632812 310.238281 350.816406 C 315.230469 339.820312 316.820312 327.324219 318.382812 315.457031 C 319.46875 307.253906 320.878906 298.917969 322.023438 290.574219 C 344.988281 275.730469 365.636719 258.398438 385.988281 240.15625 C 391.5 235.21875 397.378906 230.519531 404.347656 227.8125 C 410.738281 225.320312 417.617188 224.453125 424.300781 223.082031 C 434.507812 220.988281 446.460938 217.027344 451.117188 206.785156 C 451.175781 206.648438 451.214844 206.511719 451.242188 206.375 C 455.226562 200.738281 456.054688 192.007812 450.714844 187.195312 M 267.445312 143.921875 C 269.839844 143.128906 272.296875 143.144531 274.703125 143.746094 C 274.785156 144 274.9375 144.238281 275.191406 144.40625 C 278.800781 146.761719 275.367188 149.246094 272.585938 149.699219 C 270.214844 150.089844 266.839844 150.5 264.519531 149.945312 C 258.859375 148.585938 265.15625 144.683594 267.445312 143.921875 M 263.464844 152.78125 C 267.855469 153.351562 275.964844 153.84375 278.925781 149.578125 C 280.484375 147.332031 279.746094 142.558594 276.886719 142.136719 C 276.75 141.878906 276.519531 141.660156 276.167969 141.546875 C 271.320312 139.972656 265.292969 140.613281 261.460938 144.253906 C 258.167969 147.382812 258.527344 152.144531 263.464844 152.78125 " fill-opacity="1" fill-rule="nonzero"/><path fill="#f8e5d0" d="M 291.257812 231.664062 C 288.242188 231.664062 285.175781 231.089844 282.214844 229.882812 C 269.988281 224.902344 264.132812 210.980469 269.132812 198.792969 C 272.917969 189.5625 281.855469 183.972656 291.273438 183.972656 C 294.292969 183.972656 297.359375 184.546875 300.320312 185.753906 C 312.546875 190.738281 318.40625 204.65625 313.40625 216.839844 C 309.617188 226.078125 300.683594 231.664062 291.257812 231.664062 M 178.628906 231.664062 C 175.613281 231.664062 172.546875 231.089844 169.585938 229.882812 C 157.359375 224.902344 151.503906 210.980469 156.503906 198.792969 C 160.289062 189.5625 169.222656 183.972656 178.644531 183.972656 C 181.660156 183.972656 184.730469 184.546875 187.691406 185.753906 C 199.917969 190.738281 205.777344 204.65625 200.777344 216.839844 C 196.984375 226.078125 188.054688 231.664062 178.628906 231.664062 M 199.402344 151.105469 C 197.457031 151.105469 195.199219 150.546875 193.566406 149.683594 C 190.039062 147.824219 192.164062 145.089844 195.375 144.738281 C 196.125 144.65625 197.050781 144.558594 197.996094 144.558594 C 199.3125 144.558594 200.667969 144.746094 201.625 145.410156 C 201.492188 145.898438 201.589844 146.464844 201.957031 146.835938 C 203.769531 148.667969 203.214844 150.765625 200.320312 151.058594 C 200.027344 151.089844 199.714844 151.105469 199.402344 151.105469 M 267.253906 150.214844 C 266.273438 150.214844 265.328125 150.140625 264.519531 149.945312 C 258.859375 148.585938 265.15625 144.683594 267.445312 143.921875 C 268.714844 143.503906 269.996094 143.308594 271.285156 143.308594 C 271.867188 143.308594 272.449219 143.347656 273.03125 143.425781 C 273.246094 143.648438 273.4375 143.902344 273.605469 144.175781 C 274.304688 144.398438 274.980469 144.738281 275.609375 145.21875 C 276.375 145.804688 276.699219 146.640625 276.519531 147.410156 C 275.902344 148.558594 274.144531 149.445312 272.585938 149.699219 C 271.046875 149.953125 269.078125 150.214844 267.253906 150.214844 " fill-opacity="1" fill-rule="nonzero"/><path fill="#545454" d="M 198.347656 151.773438 C 194.863281 151.773438 190.710938 150.050781 190.820312 146.707031 C 190.871094 145.136719 191.949219 144.332031 193.246094 143.933594 C 193.972656 143.523438 194.804688 143.332031 195.628906 143.332031 C 196.617188 143.332031 197.605469 143.605469 198.425781 144.109375 C 198.59375 144.101562 198.765625 144.09375 198.933594 144.09375 C 200.335938 144.09375 201.671875 144.507812 202.597656 145.761719 C 203.859375 147.464844 203.640625 149.988281 201.675781 151.066406 C 200.820312 151.539062 199.628906 151.773438 198.347656 151.773438 M 197.996094 144.558594 C 197.050781 144.558594 196.125 144.65625 195.375 144.738281 C 192.164062 145.089844 190.039062 147.824219 193.566406 149.683594 C 195.199219 150.546875 197.457031 151.105469 199.402344 151.105469 C 199.714844 151.105469 200.027344 151.089844 200.320312 151.058594 C 203.214844 150.765625 203.769531 148.667969 201.957031 146.835938 C 201.589844 146.464844 201.492188 145.898438 201.625 145.410156 C 200.667969 144.746094 199.3125 144.558594 197.996094 144.558594 M 268.566406 150.914062 C 266.566406 150.914062 264.554688 150.433594 262.699219 149.484375 C 261.539062 148.898438 261.484375 147.277344 262.300781 146.410156 C 263.449219 145.195312 264.875 144.332031 266.40625 143.828125 C 267.332031 143.046875 268.355469 142.414062 269.542969 142.242188 C 269.742188 142.214844 269.945312 142.199219 270.144531 142.199219 C 271.265625 142.199219 272.289062 142.65625 273.03125 143.425781 C 272.449219 143.347656 271.867188 143.308594 271.285156 143.308594 C 269.996094 143.308594 268.714844 143.503906 267.445312 143.921875 C 265.15625 144.683594 258.859375 148.585938 264.519531 149.945312 C 265.328125 150.140625 266.273438 150.214844 267.253906 150.214844 C 269.078125 150.214844 271.046875 149.953125 272.585938 149.699219 C 274.144531 149.445312 275.902344 148.558594 276.519531 147.410156 C 276.410156 147.878906 276.113281 148.328125 275.609375 148.683594 C 273.484375 150.179688 271.035156 150.914062 268.566406 150.914062 " fill-opacity="1" fill-rule="nonzero"/><path fill="#ffffff" d="M 268.039062 164.96875 C 259.628906 168.765625 255.988281 178.878906 259.898438 187.554688 C 263.816406 196.230469 273.804688 200.179688 282.214844 196.382812 C 290.621094 192.582031 294.269531 182.46875 290.351562 173.792969 C 286.441406 165.117188 276.449219 161.167969 268.039062 164.96875 Z M 210.378906 173.792969 C 214.292969 182.46875 210.648438 192.582031 202.238281 196.382812 C 193.828125 200.179688 183.839844 196.230469 179.925781 187.554688 C 176.011719 178.878906 179.65625 168.765625 188.066406 164.96875 C 196.472656 161.167969 206.464844 165.117188 210.378906 173.792969 " fill-opacity="1" fill-rule="nonzero"/><path fill="#545454" d="M 302.953125 218.101562 C 295.824219 209.828125 279.523438 209.011719 269.964844 212.347656 C 268.769531 212.765625 268.011719 211.121094 269.164062 210.605469 C 279.652344 205.90625 298.605469 205.136719 306.4375 215.582031 C 308.113281 217.816406 304.816406 220.25 302.953125 218.101562 Z M 205.441406 212.289062 C 196 210.371094 181.101562 213.453125 176.050781 222.550781 C 174.730469 224.910156 171.234375 222.992188 172.367188 220.566406 C 177.667969 209.253906 195.3125 207.347656 205.859375 210.472656 C 207.011719 210.816406 206.625 212.53125 205.441406 212.289062 Z M 208.6875 203.964844 C 209.578125 204.847656 208.273438 206.257812 207.363281 205.398438 C 198.640625 197.382812 186.808594 195.363281 175.390625 196.757812 C 172.898438 197.0625 172.210938 192.921875 174.636719 192.441406 C 187.726562 189.78125 199.488281 194.835938 208.6875 203.964844 Z M 208.296875 191.144531 C 206.671875 192.609375 205.050781 193.210938 204.433594 193.414062 C 199.226562 195.152344 192.941406 192.695312 189.414062 188.332031 C 184.816406 182.632812 186.480469 175.605469 186.765625 174.402344 C 187.761719 170.195312 190.113281 167.410156 191.371094 166.113281 C 186.910156 167.84375 184.917969 171.660156 181.648438 175.152344 C 180.214844 176.667969 177.511719 175.109375 177.746094 173.179688 C 178.554688 165.910156 187.25 161.011719 194.015625 160.792969 C 196.515625 160.71875 198.835938 161.121094 200.953125 161.929688 C 201.816406 162.261719 207.765625 164.621094 210.871094 171.003906 C 214.085938 177.605469 213.332031 186.601562 208.296875 191.144531 Z M 265.453125 193.363281 C 258.800781 189.753906 255.703125 181.65625 257.25 175.304688 C 256.425781 175.320312 255.488281 174.730469 255.703125 173.949219 C 257.707031 166.96875 263.3125 161.765625 272.246094 160.511719 C 280.328125 159.386719 292.242188 162.511719 295.621094 169.542969 C 296.542969 171.40625 293.859375 173.480469 291.65625 172.265625 C 286.632812 169.457031 283 166.078125 277.148438 165.25 C 282.832031 169.191406 284.265625 177.851562 283.28125 182.753906 C 282.027344 189.128906 274.953125 198.503906 265.453125 193.363281 Z M 298.519531 192.378906 C 286.214844 192.71875 274.164062 196.511719 266.570312 205.792969 C 265.78125 206.785156 264.128906 205.578125 264.890625 204.566406 C 272.761719 194.109375 284.144531 187.308594 298.457031 187.96875 C 301.105469 188.082031 301.203125 192.304688 298.519531 192.378906 Z M 231.378906 213.40625 C 230.316406 211.746094 229.589844 210.09375 228.3125 208.734375 C 229.265625 208.308594 230.144531 207.777344 230.886719 207.15625 C 232.390625 205.886719 233.441406 204.261719 234.0625 202.488281 C 235.34375 204.527344 237.25 206.160156 239.640625 207.019531 C 240.0625 207.171875 240.523438 207.289062 240.988281 207.386719 C 240.125 211.53125 234.742188 218.625 231.378906 213.40625 Z M 250.480469 201.652344 C 247.191406 203.300781 244.875 205.519531 240.863281 204.410156 C 237.046875 203.363281 234.777344 199.722656 234.621094 195.9375 C 236.183594 195.957031 237.789062 195.371094 239.289062 193.929688 C 241.148438 192.140625 241.910156 189.023438 240.191406 186.867188 C 239.304688 185.761719 238.082031 185.578125 236.757812 185.535156 C 234.445312 185.460938 232.097656 185.609375 229.78125 185.648438 C 229.25 185.65625 228.855469 185.859375 228.582031 186.164062 L 228.523438 186.144531 C 227.175781 185.742188 225.882812 187.082031 226.261719 188.410156 C 227.121094 191.453125 229.449219 194.308594 232.214844 195.433594 L 232.214844 195.519531 C 232.179688 196.496094 232.257812 197.464844 232.445312 198.40625 C 232.296875 200.921875 231.199219 203.335938 229.152344 204.953125 C 225.917969 207.507812 222.828125 206.609375 219.203125 205.914062 C 218.097656 205.703125 217.015625 207.089844 218.011719 207.964844 C 219.96875 209.703125 222.765625 210.113281 225.421875 209.632812 C 225.503906 209.738281 225.601562 209.835938 225.726562 209.925781 C 229.25 212.417969 229.320312 219.042969 235.003906 218.238281 C 239.273438 217.636719 243.328125 211.894531 243.863281 207.625 C 247.300781 207.507812 250.859375 206.023438 252.125 202.910156 C 252.523438 201.929688 251.257812 201.265625 250.480469 201.652344 " fill-opacity="1" fill-rule="nonzero"/><g fill="#34586e" fill-opacity="1"><g transform="translate(560.492851, 254.249983)"><g><path d="M 100.703125 0 L 5.125 0 L 5.125 -20.46875 L 58.234375 -95.921875 L 6.375 -95.921875 L 6.375 -122.6875 L 99.359375 -122.6875 L 99.359375 -102.296875 L 46.234375 -26.765625 L 100.703125 -26.765625 Z M 100.703125 0 "/></g></g></g><g fill="#34586e" fill-opacity="1"><g transform="translate(665.469017, 254.249983)"><g><path d="M 102.125 -47.75 C 102.125 -32.195312 97.941406 -20.070312 89.578125 -11.375 C 81.210938 -2.675781 69.507812 1.671875 54.46875 1.671875 C 40.03125 1.671875 28.546875 -2.769531 20.015625 -11.65625 C 11.484375 -20.550781 7.21875 -32.582031 7.21875 -47.75 C 7.21875 -63.25 11.398438 -75.289062 19.765625 -83.875 C 28.128906 -92.457031 39.863281 -96.75 54.96875 -96.75 C 64.3125 -96.75 72.5625 -94.765625 79.71875 -90.796875 C 86.882812 -86.828125 92.410156 -81.132812 96.296875 -73.71875 C 100.179688 -66.300781 102.125 -57.644531 102.125 -47.75 Z M 40.53125 -47.75 C 40.53125 -39.582031 41.617188 -33.359375 43.796875 -29.078125 C 45.984375 -24.796875 49.648438 -22.65625 54.796875 -22.65625 C 59.890625 -22.65625 63.484375 -24.796875 65.578125 -29.078125 C 67.679688 -33.359375 68.734375 -39.582031 68.734375 -47.75 C 68.734375 -55.863281 67.664062 -61.988281 65.53125 -66.125 C 63.40625 -70.257812 59.769531 -72.328125 54.625 -72.328125 C 49.59375 -72.328125 45.984375 -70.269531 43.796875 -66.15625 C 41.617188 -62.050781 40.53125 -55.914062 40.53125 -47.75 Z M 40.53125 -47.75 "/></g></g></g><g fill="#34586e" fill-opacity="1"><g transform="translate(774.97654, 254.249983)"><g><path d="M 102.125 -47.75 C 102.125 -32.195312 97.941406 -20.070312 89.578125 -11.375 C 81.210938 -2.675781 69.507812 1.671875 54.46875 1.671875 C 40.03125 1.671875 28.546875 -2.769531 20.015625 -11.65625 C 11.484375 -20.550781 7.21875 -32.582031 7.21875 -47.75 C 7.21875 -63.25 11.398438 -75.289062 19.765625 -83.875 C 28.128906 -92.457031 39.863281 -96.75 54.96875 -96.75 C 64.3125 -96.75 72.5625 -94.765625 79.71875 -90.796875 C 86.882812 -86.828125 92.410156 -81.132812 96.296875 -73.71875 C 100.179688 -66.300781 102.125 -57.644531 102.125 -47.75 Z M 40.53125 -47.75 C 40.53125 -39.582031 41.617188 -33.359375 43.796875 -29.078125 C 45.984375 -24.796875 49.648438 -22.65625 54.796875 -22.65625 C 59.890625 -22.65625 63.484375 -24.796875 65.578125 -29.078125 C 67.679688 -33.359375 68.734375 -39.582031 68.734375 -47.75 C 68.734375 -55.863281 67.664062 -61.988281 65.53125 -66.125 C 63.40625 -70.257812 59.769531 -72.328125 54.625 -72.328125 C 49.59375 -72.328125 45.984375 -70.269531 43.796875 -66.15625 C 41.617188 -62.050781 40.53125 -55.914062 40.53125 -47.75 Z M 40.53125 -47.75 "/></g></g></g><g fill="#34586e" fill-opacity="1"><g transform="translate(884.48404, 254.249983)"><g><path d="M 57.90625 -24.25 C 62.320312 -24.25 67.609375 -25.34375 73.765625 -27.53125 L 73.765625 -3.609375 C 69.335938 -1.703125 65.125 -0.347656 61.125 0.453125 C 57.125 1.265625 52.441406 1.671875 47.078125 1.671875 C 36.054688 1.671875 28.109375 -1.023438 23.234375 -6.421875 C 18.367188 -11.816406 15.9375 -20.109375 15.9375 -31.296875 L 15.9375 -70.484375 L 4.453125 -70.484375 L 4.453125 -83.828125 L 19.046875 -94.15625 L 27.53125 -114.125 L 49 -114.125 L 49 -95.078125 L 72.328125 -95.078125 L 72.328125 -70.484375 L 49 -70.484375 L 49 -33.484375 C 49 -27.328125 51.96875 -24.25 57.90625 -24.25 Z M 57.90625 -24.25 "/></g></g></g><g fill="#34586e" fill-opacity="1"><g transform="translate(963.530849, 254.249983)"><g><path d="M 102.125 -47.75 C 102.125 -32.195312 97.941406 -20.070312 89.578125 -11.375 C 81.210938 -2.675781 69.507812 1.671875 54.46875 1.671875 C 40.03125 1.671875 28.546875 -2.769531 20.015625 -11.65625 C 11.484375 -20.550781 7.21875 -32.582031 7.21875 -47.75 C 7.21875 -63.25 11.398438 -75.289062 19.765625 -83.875 C 28.128906 -92.457031 39.863281 -96.75 54.96875 -96.75 C 64.3125 -96.75 72.5625 -94.765625 79.71875 -90.796875 C 86.882812 -86.828125 92.410156 -81.132812 96.296875 -73.71875 C 100.179688 -66.300781 102.125 -57.644531 102.125 -47.75 Z M 40.53125 -47.75 C 40.53125 -39.582031 41.617188 -33.359375 43.796875 -29.078125 C 45.984375 -24.796875 49.648438 -22.65625 54.796875 -22.65625 C 59.890625 -22.65625 63.484375 -24.796875 65.578125 -29.078125 C 67.679688 -33.359375 68.734375 -39.582031 68.734375 -47.75 C 68.734375 -55.863281 67.664062 -61.988281 65.53125 -66.125 C 63.40625 -70.257812 59.769531 -72.328125 54.625 -72.328125 C 49.59375 -72.328125 45.984375 -70.269531 43.796875 -66.15625 C 41.617188 -62.050781 40.53125 -55.914062 40.53125 -47.75 Z M 40.53125 -47.75 "/></g></g></g><g fill="#34586e" fill-opacity="1"><g transform="translate(1073.038349, 254.249983)"><g><path d="M 68.390625 1.671875 C 63.578125 1.671875 59.269531 0.875 55.46875 -0.71875 C 51.664062 -2.3125 47.890625 -5.175781 44.140625 -9.3125 L 42.625 -9.3125 C 43.632812 -2.65625 44.140625 1.484375 44.140625 3.109375 L 44.140625 41.28125 L 11.328125 41.28125 L 11.328125 -95.078125 L 38.015625 -95.078125 L 42.625 -83 L 44.140625 -83 C 50.234375 -92.164062 58.648438 -96.75 69.390625 -96.75 C 79.910156 -96.75 88.160156 -92.382812 94.140625 -83.65625 C 100.128906 -74.9375 103.125 -62.96875 103.125 -47.75 C 103.125 -32.414062 100.003906 -20.34375 93.765625 -11.53125 C 87.535156 -2.726562 79.078125 1.671875 68.390625 1.671875 Z M 57.390625 -71 C 52.585938 -71 49.21875 -69.273438 47.28125 -65.828125 C 45.351562 -62.390625 44.304688 -57.285156 44.140625 -50.515625 L 44.140625 -47.921875 C 44.140625 -39.753906 45.226562 -33.847656 47.40625 -30.203125 C 49.59375 -26.566406 53.035156 -24.75 57.734375 -24.75 C 61.929688 -24.75 64.976562 -26.550781 66.875 -30.15625 C 68.78125 -33.769531 69.734375 -39.742188 69.734375 -48.078125 C 69.734375 -56.242188 68.78125 -62.101562 66.875 -65.65625 C 64.976562 -69.21875 61.816406 -71 57.390625 -71 Z M 57.390625 -71 "/></g></g></g><g fill="#34586e" fill-opacity="1"><g transform="translate(1183.552838, 254.249983)"><g><path d="M 44.3125 0 L 11.5 0 L 11.5 -95.078125 L 44.3125 -95.078125 Z M 10.65625 -118.734375 C 10.65625 -123.660156 12.023438 -127.328125 14.765625 -129.734375 C 17.503906 -132.140625 21.925781 -133.34375 28.03125 -133.34375 C 34.125 -133.34375 38.566406 -132.109375 41.359375 -129.640625 C 44.160156 -127.179688 45.5625 -123.546875 45.5625 -118.734375 C 45.5625 -109.117188 39.71875 -104.3125 28.03125 -104.3125 C 16.445312 -104.3125 10.65625 -109.117188 10.65625 -118.734375 Z M 10.65625 -118.734375 "/></g></g></g><g fill="#34586e" fill-opacity="1"><g transform="translate(1239.439416, 254.249983)"><g><path d="M 73.34375 0 L 67.046875 -12.59375 L 66.375 -12.59375 C 61.957031 -7.101562 57.453125 -3.351562 52.859375 -1.34375 C 48.273438 0.664062 42.347656 1.671875 35.078125 1.671875 C 26.128906 1.671875 19.078125 -1.007812 13.921875 -6.375 C 8.773438 -11.75 6.203125 -19.300781 6.203125 -29.03125 C 6.203125 -39.15625 9.726562 -46.691406 16.78125 -51.640625 C 23.832031 -56.597656 34.039062 -59.382812 47.40625 -60 L 63.265625 -60.5 L 63.265625 -61.84375 C 63.265625 -69.675781 59.40625 -73.59375 51.6875 -73.59375 C 44.75 -73.59375 35.941406 -71.242188 25.265625 -66.546875 L 15.78125 -88.203125 C 26.851562 -93.898438 40.835938 -96.75 57.734375 -96.75 C 69.929688 -96.75 79.367188 -93.726562 86.046875 -87.6875 C 92.734375 -81.644531 96.078125 -73.195312 96.078125 -62.34375 L 96.078125 0 Z M 49 -21.484375 C 52.976562 -21.484375 56.378906 -22.738281 59.203125 -25.25 C 62.023438 -27.769531 63.4375 -31.046875 63.4375 -35.078125 L 63.4375 -42.46875 L 55.890625 -42.125 C 45.085938 -41.726562 39.6875 -37.753906 39.6875 -30.203125 C 39.6875 -24.390625 42.789062 -21.484375 49 -21.484375 Z M 49 -21.484375 "/></g></g></g><g fill="#34586e" fill-opacity="1"><g transform="translate(1346.513399, 254.249983)"><g><path d="M 7.21875 -13.9375 C 7.21875 -19.082031 8.738281 -23.050781 11.78125 -25.84375 C 14.832031 -28.644531 19.269531 -30.046875 25.09375 -30.046875 C 30.632812 -30.046875 34.882812 -28.644531 37.84375 -25.84375 C 40.8125 -23.050781 42.296875 -19.082031 42.296875 -13.9375 C 42.296875 -8.894531 40.769531 -4.960938 37.71875 -2.140625 C 34.664062 0.679688 30.457031 2.09375 25.09375 2.09375 C 19.550781 2.09375 15.1875 0.695312 12 -2.09375 C 8.8125 -4.894531 7.21875 -8.84375 7.21875 -13.9375 Z M 7.21875 -13.9375 "/></g></g></g></svg>