<svg xmlns="http://www.w3.org/2000/svg" xmlns:xlink="http://www.w3.org/1999/xlink" width="500" zoomAndPan="magnify" viewBox="0 0 375 374.999991" height="500" preserveAspectRatio="xMidYMid meet" version="1.0"><path fill="#c2a476" d="M 371.085938 207.136719 C 371.070312 207.257812 371.035156 207.363281 370.984375 207.480469 C 367.15625 215.898438 357.324219 219.152344 348.929688 220.875 C 343.4375 221.992188 337.777344 222.710938 332.523438 224.765625 C 326.789062 226.988281 321.957031 230.847656 317.425781 234.910156 C 300.691406 249.90625 283.707031 264.148438 264.820312 276.347656 C 263.882812 283.214844 262.71875 290.066406 261.832031 296.804688 C 260.539062 306.558594 259.234375 316.832031 255.125 325.867188 C 251.46875 333.941406 245.160156 339.414062 236.191406 340.367188 C 232.90625 340.722656 222.269531 341.339844 219.546875 337.355469 C 219.152344 337.421875 218.730469 337.28125 218.492188 336.824219 C 217.730469 335.398438 217.726562 333.753906 218.195312 332.195312 C 215.550781 328.957031 219.09375 323.835938 221.597656 321.609375 C 223.3125 320.09375 225.820312 319.097656 227.953125 319.519531 C 229.25 309.746094 229.257812 300.785156 225.804688 291.324219 C 225.335938 290.050781 224.824219 288.789062 224.28125 287.539062 C 207.941406 294.941406 188.429688 291.105469 171.90625 286.136719 C 165.730469 296.894531 159.253906 307.488281 162.289062 320.480469 C 166.347656 318.191406 171.792969 319.199219 174.238281 323.867188 C 177.21875 329.558594 172.6875 337.675781 165.941406 336.605469 C 165.738281 337.132812 165.425781 337.617188 165.007812 338.046875 L 164.8125 338.210938 C 165.101562 338.945312 164.988281 339.839844 164.171875 340.226562 C 156.949219 343.589844 148.761719 341.242188 143.101562 335.910156 C 136.496094 329.691406 133.566406 320.441406 130.75 312.09375 C 126.171875 298.511719 122.796875 284.585938 120.617188 270.464844 C 120.261719 270.722656 119.792969 270.8125 119.285156 270.566406 C 101.429688 261.53125 86.636719 247.144531 71.769531 234.011719 C 56.863281 220.851562 41.277344 208.1875 22.777344 200.507812 C 13.332031 197.039062 0.03125 188.753906 0.863281 177.679688 C 0.863281 177.5 0.878906 177.320312 0.902344 177.136719 C 0.953125 176.71875 1.019531 176.28125 1.109375 175.851562 C 1.183594 175.503906 1.414062 175.339844 1.667969 175.308594 C 2.671875 173.882812 4.4375 172.851562 6.042969 172.574219 C 6.226562 172.546875 6.394531 172.53125 6.578125 172.515625 C 6.453125 172.210938 6.488281 171.847656 6.800781 171.542969 C 9.09375 169.304688 12.292969 168.199219 15.390625 168.601562 C 15.851562 168.214844 16.519531 168.074219 17.210938 168.46875 C 32.808594 177.308594 46.648438 188.183594 63.855469 194.007812 C 80.285156 199.578125 97.253906 200.910156 114.496094 199.957031 C 113.53125 180.480469 122.761719 160.972656 134.339844 145.109375 C 134.132812 145.050781 133.9375 144.933594 133.761719 144.742188 C 121.5 131.109375 130.3125 110.917969 144.175781 102.664062 C 144.75 102.328125 145.574219 102.417969 146.042969 102.914062 C 153.886719 111.050781 160.152344 120.484375 164.765625 130.796875 C 180.96875 124.183594 198.902344 123.292969 215.691406 128.128906 C 218.648438 121.597656 222.15625 115.234375 227.03125 109.929688 C 229.3125 107.433594 231.90625 105.210938 234.800781 103.429688 C 236.652344 102.285156 239.757812 100.136719 242.085938 100.570312 C 244.453125 101.015625 245.628906 104.136719 246.632812 106.019531 C 248.464844 109.429688 249.894531 113.050781 250.917969 116.785156 C 252.976562 124.289062 253.378906 132.195312 251.953125 139.84375 C 251.933594 139.949219 251.898438 140.042969 251.863281 140.132812 C 256.441406 145.214844 260.378906 150.972656 263.574219 157.160156 C 275.375 146.550781 284.390625 132.164062 287.460938 116.523438 C 290.417969 101.433594 287.777344 83.980469 276.402344 72.84375 C 264.136719 60.839844 245.703125 59.535156 229.625 62.125 C 222.542969 63.269531 214.152344 67.171875 206.949219 65.433594 C 202.050781 64.25 198.164062 59.652344 199.769531 54.492188 C 201.375 49.328125 206.945312 45.285156 211.546875 42.960938 C 217.023438 40.191406 223.078125 38.925781 229.148438 38.371094 C 236.183594 37.738281 243.285156 38.058594 250.316406 38.585938 C 257.628906 39.128906 265.015625 40.085938 271.894531 42.714844 C 297.796875 52.632812 312.136719 79.730469 311.492188 106.609375 C 310.78125 136.597656 293.96875 163.453125 271.984375 182.828125 C 272.941406 188.992188 273.179688 195.246094 272.621094 201.417969 C 272.703125 201.390625 272.765625 201.359375 272.859375 201.359375 C 289.582031 200.5 306.429688 199.808594 323.058594 197.800781 C 331.082031 196.828125 339.253906 195.160156 346.410156 191.257812 C 351.359375 188.546875 356.628906 183.167969 362.757812 184.824219 C 363.113281 184.914062 363.351562 185.109375 363.507812 185.359375 C 365.609375 185.871094 367.800781 186.5625 369.25 188.242188 C 370.023438 189.148438 370.535156 190.242188 370.648438 191.375 C 375.046875 195.335938 374.363281 202.511719 371.085938 207.136719 " fill-opacity="1" fill-rule="nonzero"/><path fill="#545454" d="M 164.734375 161.671875 C 162.992188 161.847656 160.742188 161.363281 159.183594 160.542969 C 156.28125 159.011719 158.027344 156.761719 160.667969 156.472656 C 162.148438 156.308594 164.457031 156.085938 165.8125 157.027344 C 165.703125 157.429688 165.78125 157.894531 166.085938 158.199219 C 167.574219 159.703125 167.117188 161.429688 164.734375 161.671875 M 168.058594 156.320312 C 166.066406 153.464844 160.382812 153.117188 157.535156 154.503906 C 153.867188 156.285156 153.863281 160.683594 157.207031 162.773438 C 160.179688 164.632812 165.960938 165.835938 168.710938 163.03125 C 170.410156 161.300781 170.417969 157.078125 168.058594 156.320312 M 226.363281 132.382812 C 230.570312 133.308594 236.625 134.609375 239.730469 137.800781 C 240.34375 138.433594 239.71875 139.4375 238.890625 139.246094 C 236.863281 138.773438 235.027344 137.496094 233.121094 136.667969 C 230.761719 135.644531 228.359375 134.816406 225.878906 134.144531 C 224.734375 133.835938 225.222656 132.128906 226.363281 132.382812 M 152.714844 139.589844 C 149.449219 140.601562 146.542969 141.503906 143.722656 143.527344 C 142.734375 144.238281 141.816406 142.613281 142.773438 141.90625 C 145.546875 139.855469 148.980469 138.082031 152.472656 137.820312 C 153.527344 137.742188 153.640625 139.300781 152.714844 139.589844 M 368.714844 206.351562 C 362.445312 215.667969 351.90625 217.261719 341.640625 219.304688 C 331.21875 221.371094 323.230469 225.789062 315.355469 232.839844 C 299.269531 247.25 282.914062 260.910156 265.222656 273.265625 C 265.78125 268.808594 266.214844 264.359375 266.386719 259.945312 C 266.441406 258.515625 264.175781 258.179688 263.871094 259.601562 C 262.710938 264.960938 262.09375 270.503906 261.519531 276.03125 C 261.402344 276.273438 261.382812 276.542969 261.441406 276.789062 C 261.15625 279.523438 260.875 282.257812 260.539062 284.953125 C 259.382812 294.128906 258.441406 303.378906 256.4375 312.417969 C 254.800781 319.824219 252.550781 328.128906 246.6875 333.378906 C 243.195312 336.503906 238.703125 337.746094 234.117188 338.027344 C 231.921875 338.160156 221.980469 338.632812 220.625 335.542969 C 220.730469 333.042969 220.808594 330.6875 223.222656 329.066406 C 225.644531 327.445312 228.722656 327.875 230.953125 329.574219 C 231.726562 330.164062 232.757812 328.84375 232.003906 328.210938 C 229.148438 325.816406 225.035156 325.226562 221.804688 327.296875 C 221.195312 327.6875 220.621094 328.199219 220.105469 328.785156 C 220.121094 328.664062 220.140625 328.546875 220.167969 328.425781 C 220.484375 327.058594 221.246094 325.816406 222.125 324.738281 C 223.683594 322.816406 227.675781 319.65625 229.488281 323.09375 C 230.078125 324.222656 231.734375 323.230469 231.183594 322.101562 C 230.835938 321.390625 230.390625 320.84375 229.890625 320.429688 C 233.945312 311.878906 232.445312 301.28125 229.519531 292.601562 C 228.746094 290.316406 227.832031 288.097656 226.808594 285.933594 C 227.132812 285.097656 226.617188 283.960938 225.746094 283.773438 C 222.429688 277.3125 218.183594 271.316406 213.859375 265.507812 C 213.070312 264.445312 211.269531 265.441406 212.046875 266.5625 C 216.054688 272.34375 219.898438 278.269531 222.945312 284.601562 C 215.203125 287.375 207.476562 288.796875 199.113281 288.476562 C 190.3125 288.132812 181.636719 286.203125 173.128906 284 C 176.042969 278.839844 178.742188 273.605469 180.148438 268.015625 C 180.511719 266.574219 178.285156 265.480469 177.640625 266.957031 C 173.472656 276.554688 167.964844 285.375 163.621094 294.871094 C 159.71875 303.425781 157.476562 312.714844 160.109375 321.96875 L 160.171875 322.125 C 159.847656 322.464844 159.535156 322.824219 159.253906 323.222656 C 158.621094 324.128906 160.105469 325.296875 160.796875 324.414062 C 163.667969 320.75 169.386719 320.457031 171.761719 324.878906 C 172.828125 326.863281 172.851562 329.25 171.5625 331.140625 C 170.238281 333.085938 168.363281 333.6875 166.246094 334.125 C 165.777344 329.390625 160.125 324.1875 157.097656 328.695312 C 156.4375 329.675781 157.984375 330.535156 158.660156 329.609375 C 160.25 327.4375 162.476562 330.433594 163.09375 331.804688 C 163.832031 333.460938 163.871094 334.953125 163.113281 336.585938 C 163.019531 336.796875 162.984375 337.011719 163.003906 337.21875 L 162.917969 337.246094 C 143.375 345.457031 135.21875 316.003906 131.222656 303.046875 C 125.566406 284.714844 121.863281 265.8125 120.074219 246.714844 C 119.953125 245.460938 118 245.421875 118.078125 246.714844 C 118.511719 253.921875 119.242188 261.09375 120.28125 268.222656 C 102.203125 257.289062 86.804688 243.324219 70.917969 229.53125 C 57.089844 217.519531 42.53125 205.90625 25.351562 199.265625 C 25.292969 199.210938 25.226562 199.15625 25.148438 199.105469 C 17.441406 194.746094 2.988281 189.851562 2.398438 179.261719 C 2.671875 179.132812 2.910156 178.917969 3.039062 178.625 C 3.996094 176.34375 5.132812 174.675781 7.910156 174.855469 C 10.167969 175 11.976562 176.359375 13.488281 177.9375 C 14.273438 178.753906 15.421875 177.550781 14.714844 176.707031 C 13.105469 174.789062 10.96875 173.074219 8.511719 172.605469 C 10.398438 171.078125 12.6875 170.507812 14.980469 170.835938 C 15.105469 171.027344 15.285156 171.207031 15.523438 171.355469 C 31.207031 180.964844 45.945312 191.75 63.65625 197.421875 C 79.917969 202.636719 97.714844 204.628906 114.601562 201.703125 C 115.144531 208.347656 116.90625 214.972656 120.195312 221.4375 C 131.925781 244.453125 162.21875 251.859375 186.117188 248.355469 C 188.105469 248.0625 187.484375 245.097656 185.664062 245 C 173.675781 244.34375 161.960938 244.800781 150.328125 241.164062 C 138.632812 237.503906 128.621094 230.117188 123.050781 219.027344 C 110.539062 194.101562 122.472656 165.992188 136.925781 144.851562 C 137.410156 144.136719 136.796875 143.484375 136.125 143.453125 C 136.09375 143.316406 136.042969 143.183594 135.957031 143.050781 C 127.347656 129.671875 131.734375 114.347656 144.691406 105.980469 C 152.140625 113.863281 158.3125 122.640625 163.050781 132.421875 C 163.09375 132.503906 163.140625 132.578125 163.191406 132.648438 C 163.3125 133.300781 163.855469 133.824219 164.640625 133.5 C 181.378906 126.574219 199.851562 125.839844 217.054688 131.550781 C 218.75 132.113281 219.523438 129.5625 218.039062 128.847656 C 220.179688 124.328125 222.578125 119.914062 225.574219 115.898438 C 228.925781 111.402344 234.203125 105.472656 239.921875 104.082031 C 242.847656 103.367188 244.066406 107.71875 245.121094 110.132812 C 246.460938 113.210938 247.5 116.425781 248.230469 119.699219 C 249.6875 126.230469 249.640625 132.808594 248.777344 139.410156 C 248.707031 139.921875 248.910156 140.308594 249.234375 140.578125 C 249.261719 140.726562 249.324219 140.878906 249.433594 141.023438 C 264.023438 160.019531 272.839844 185.402344 267.328125 209.347656 C 264.800781 220.339844 258.992188 230.574219 249.132812 236.492188 C 244.023438 239.5625 238.320312 241.394531 232.507812 242.597656 C 226.6875 243.808594 220.554688 243.960938 214.828125 245.535156 C 213.203125 245.984375 213.691406 248.148438 215.203125 248.308594 C 226.996094 249.550781 241.820312 246.117188 251.824219 239.800781 C 261.867188 233.460938 268.132812 222.988281 270.933594 211.613281 C 271.613281 208.855469 272.101562 206.054688 272.433594 203.230469 C 272.554688 203.285156 272.695312 203.320312 272.855469 203.320312 C 289.339844 203.328125 305.96875 202.777344 322.355469 200.910156 C 329.222656 200.125 336.101562 198.9375 342.554688 196.394531 C 349.292969 193.734375 354.992188 187.738281 362.402344 187.441406 C 362.664062 187.429688 362.890625 187.351562 363.082031 187.226562 C 364.632812 187.6875 366.441406 188.378906 367.519531 189.511719 C 362.082031 187.707031 357.585938 193.261719 355.007812 197.734375 C 354.4375 198.730469 355.886719 199.539062 356.53125 198.625 C 358.996094 195.097656 363.542969 189.382812 368.261719 192.933594 L 368.246094 193.003906 C 367.941406 193.894531 368.964844 194.582031 369.703125 194.347656 C 372.371094 197.839844 370.324219 202.507812 368.714844 206.351562 M 291.003906 95.929688 C 289.28125 84.554688 283.820312 73.914062 274.496094 66.972656 C 263.425781 58.730469 248.984375 56.703125 235.550781 57.984375 C 227.980469 58.710938 220.816406 60.957031 213.363281 62.164062 C 209.140625 62.84375 201.179688 61.613281 203 55.386719 C 204.027344 51.855469 208.226562 48.773438 211.199219 46.976562 C 222.46875 40.152344 236.953125 41 249.570312 41.941406 C 264.300781 43.046875 277.628906 47.035156 288.488281 57.4375 C 298.292969 66.835938 304.644531 79.402344 306.847656 92.769531 C 312.367188 126.25 294.332031 156.46875 271.3125 179.085938 C 269.890625 172.082031 267.546875 165.234375 264.410156 158.816406 C 283.09375 144.015625 294.636719 119.96875 291.003906 95.929688 M 370.652344 191.375 C 370.527344 190.242188 370.027344 189.152344 369.25 188.246094 C 367.804688 186.558594 365.609375 185.875 363.507812 185.355469 C 363.355469 185.113281 363.109375 184.917969 362.753906 184.820312 C 356.632812 183.171875 351.359375 188.546875 346.410156 191.253906 C 339.25 195.160156 331.085938 196.828125 323.058594 197.796875 C 306.433594 199.804688 289.578125 200.503906 272.855469 201.351562 C 272.765625 201.359375 272.699219 201.390625 272.621094 201.410156 C 273.183594 195.246094 272.945312 188.992188 271.988281 182.828125 C 293.964844 163.449219 310.78125 136.59375 311.492188 106.613281 C 312.132812 79.726562 297.800781 52.636719 271.898438 42.71875 C 265.011719 40.082031 257.628906 39.128906 250.320312 38.585938 C 243.285156 38.0625 236.1875 37.738281 229.148438 38.375 C 223.078125 38.929688 217.019531 40.191406 211.546875 42.957031 C 206.941406 45.285156 201.375 49.332031 199.765625 54.492188 C 198.160156 59.65625 202.054688 64.246094 206.953125 65.433594 C 214.152344 67.171875 222.546875 63.265625 229.625 62.125 C 245.703125 59.53125 264.136719 60.835938 276.402344 72.84375 C 287.773438 83.976562 290.417969 101.433594 287.457031 116.523438 C 284.390625 132.167969 275.375 146.550781 263.578125 157.164062 C 260.382812 150.972656 256.441406 145.214844 251.863281 140.128906 C 251.902344 140.042969 251.933594 139.945312 251.953125 139.84375 C 253.382812 132.195312 252.972656 124.285156 250.917969 116.78125 C 249.898438 113.050781 248.46875 109.425781 246.636719 106.015625 C 245.628906 104.140625 244.453125 101.019531 242.085938 100.574219 C 239.761719 100.132812 236.652344 102.289062 234.796875 103.429688 C 231.910156 105.207031 229.316406 107.433594 227.03125 109.925781 C 222.160156 115.238281 218.648438 121.597656 215.6875 128.125 C 198.90625 123.296875 180.964844 124.183594 164.769531 130.792969 C 160.15625 120.484375 153.886719 111.046875 146.042969 102.90625 C 145.574219 102.421875 144.753906 102.324219 144.175781 102.667969 C 130.3125 110.917969 121.5 131.113281 133.761719 144.742188 C 133.933594 144.9375 134.132812 145.050781 134.339844 145.109375 C 122.761719 160.972656 113.527344 180.484375 114.496094 199.953125 C 97.257812 200.910156 80.289062 199.574219 63.851562 194.011719 C 46.652344 188.1875 32.816406 177.308594 17.210938 168.46875 C 16.519531 168.078125 15.859375 168.214844 15.390625 168.605469 C 12.296875 168.195312 9.089844 169.296875 6.800781 171.542969 C 6.488281 171.847656 6.453125 172.210938 6.578125 172.511719 C 6.402344 172.527344 6.226562 172.546875 6.046875 172.578125 C 4.433594 172.851562 2.671875 173.886719 1.671875 175.3125 C 1.414062 175.34375 1.1875 175.503906 1.113281 175.847656 C 1.019531 176.285156 0.957031 176.710938 0.902344 177.140625 C 0.875 177.316406 0.863281 177.496094 0.859375 177.679688 C 0.0273438 188.757812 13.332031 197.039062 22.777344 200.507812 C 41.273438 208.183594 56.863281 220.851562 71.769531 234.015625 C 86.636719 247.144531 101.425781 261.53125 119.289062 270.5625 C 119.792969 270.816406 120.269531 270.722656 120.617188 270.464844 C 122.796875 284.585938 126.167969 298.511719 130.746094 312.09375 C 133.5625 320.445312 136.5 329.695312 143.101562 335.910156 C 148.761719 341.246094 156.949219 343.585938 164.171875 340.222656 C 164.988281 339.84375 165.109375 338.945312 164.816406 338.210938 L 165.007812 338.046875 C 165.429688 337.613281 165.734375 337.128906 165.941406 336.605469 C 172.691406 337.671875 177.214844 329.5625 174.234375 323.871094 C 171.789062 319.199219 166.351562 318.1875 162.289062 320.480469 C 159.253906 307.492188 165.730469 296.894531 171.910156 286.136719 C 188.425781 291.105469 207.9375 294.941406 224.285156 287.539062 C 224.824219 288.785156 225.339844 290.046875 225.808594 291.328125 C 229.257812 300.785156 229.246094 309.75 227.953125 319.519531 C 225.820312 319.101562 223.308594 320.09375 221.597656 321.609375 C 219.097656 323.832031 215.554688 328.960938 218.191406 332.199219 C 217.726562 333.757812 217.734375 335.402344 218.492188 336.824219 C 218.730469 337.277344 219.148438 337.414062 219.550781 337.355469 C 222.273438 341.335938 232.902344 340.71875 236.191406 340.367188 C 245.164062 339.410156 251.464844 333.941406 255.128906 325.871094 C 259.234375 316.832031 260.542969 306.558594 261.828125 296.804688 C 262.71875 290.066406 263.882812 283.210938 264.820312 276.351562 C 283.707031 264.148438 300.6875 249.902344 317.421875 234.910156 C 321.957031 230.847656 326.792969 226.988281 332.523438 224.761719 C 337.78125 222.714844 343.4375 222 348.929688 220.875 C 357.324219 219.152344 367.15625 215.898438 370.984375 207.476562 C 371.035156 207.363281 371.066406 207.25 371.089844 207.140625 C 374.363281 202.507812 375.046875 195.332031 370.652344 191.375 M 219.9375 155.804688 C 221.90625 155.152344 223.929688 155.164062 225.90625 155.660156 C 225.972656 155.867188 226.101562 156.066406 226.308594 156.199219 C 229.277344 158.136719 226.453125 160.179688 224.167969 160.554688 C 222.214844 160.871094 219.441406 161.210938 217.53125 160.753906 C 212.875 159.636719 218.058594 156.429688 219.9375 155.804688 M 216.664062 163.085938 C 220.277344 163.554688 226.945312 163.957031 229.378906 160.453125 C 230.664062 158.605469 230.054688 154.683594 227.703125 154.335938 C 227.589844 154.125 227.398438 153.945312 227.109375 153.851562 C 223.125 152.558594 218.167969 153.085938 215.015625 156.078125 C 212.3125 158.648438 212.601562 162.5625 216.664062 163.085938 " fill-opacity="1" fill-rule="nonzero"/><path fill="#f8e5d0" d="M 239.523438 227.925781 C 237.042969 227.925781 234.519531 227.457031 232.085938 226.464844 C 222.03125 222.371094 217.214844 210.925781 221.324219 200.910156 C 224.441406 193.320312 231.789062 188.726562 239.535156 188.726562 C 242.015625 188.726562 244.539062 189.199219 246.972656 190.1875 C 257.027344 194.285156 261.847656 205.730469 257.734375 215.742188 C 254.617188 223.335938 247.273438 227.925781 239.523438 227.925781 M 146.898438 227.925781 C 144.417969 227.925781 141.898438 227.457031 139.460938 226.464844 C 129.40625 222.371094 124.589844 210.925781 128.703125 200.910156 C 131.816406 193.320312 139.160156 188.726562 146.914062 188.726562 C 149.394531 188.726562 151.914062 189.199219 154.351562 190.1875 C 164.40625 194.285156 169.222656 205.730469 165.113281 215.742188 C 161.996094 223.335938 154.648438 227.925781 146.898438 227.925781 M 163.984375 161.710938 C 162.382812 161.710938 160.523438 161.25 159.183594 160.542969 C 156.28125 159.011719 158.027344 156.761719 160.667969 156.472656 C 161.289062 156.40625 162.050781 156.324219 162.824219 156.324219 C 163.910156 156.324219 165.023438 156.480469 165.8125 157.027344 C 165.703125 157.429688 165.78125 157.894531 166.085938 158.199219 C 167.574219 159.703125 167.117188 161.429688 164.734375 161.671875 C 164.496094 161.695312 164.242188 161.710938 163.984375 161.710938 M 219.78125 160.976562 C 218.972656 160.976562 218.199219 160.914062 217.53125 160.753906 C 212.875 159.636719 218.058594 156.429688 219.9375 155.804688 C 220.980469 155.460938 222.035156 155.300781 223.09375 155.300781 C 223.574219 155.300781 224.054688 155.332031 224.535156 155.394531 C 224.710938 155.578125 224.867188 155.789062 225.003906 156.011719 C 225.578125 156.195312 226.136719 156.472656 226.652344 156.871094 C 227.28125 157.351562 227.546875 158.039062 227.398438 158.671875 C 226.894531 159.613281 225.445312 160.34375 224.167969 160.554688 C 222.898438 160.761719 221.28125 160.976562 219.78125 160.976562 " fill-opacity="1" fill-rule="nonzero"/><path fill="#545454" d="M 163.113281 162.257812 C 160.25 162.257812 156.835938 160.839844 156.925781 158.09375 C 156.964844 156.800781 157.855469 156.140625 158.917969 155.8125 C 159.519531 155.476562 160.199219 155.316406 160.878906 155.316406 C 161.691406 155.316406 162.503906 155.542969 163.179688 155.957031 C 163.316406 155.953125 163.457031 155.945312 163.597656 155.945312 C 164.75 155.945312 165.847656 156.285156 166.609375 157.316406 C 167.648438 158.714844 167.46875 160.789062 165.851562 161.675781 C 165.148438 162.0625 164.171875 162.257812 163.113281 162.257812 M 162.824219 156.324219 C 162.050781 156.324219 161.289062 156.40625 160.667969 156.472656 C 158.027344 156.761719 156.28125 159.011719 159.183594 160.542969 C 160.523438 161.25 162.382812 161.710938 163.984375 161.710938 C 164.242188 161.710938 164.496094 161.695312 164.734375 161.671875 C 167.117188 161.429688 167.574219 159.703125 166.085938 158.199219 C 165.78125 157.894531 165.703125 157.429688 165.8125 157.027344 C 165.023438 156.480469 163.910156 156.324219 162.824219 156.324219 M 220.859375 161.550781 C 219.214844 161.550781 217.5625 161.15625 216.035156 160.378906 C 215.082031 159.894531 215.035156 158.5625 215.707031 157.847656 C 216.652344 156.851562 217.824219 156.140625 219.082031 155.726562 C 219.84375 155.082031 220.6875 154.566406 221.664062 154.421875 C 221.828125 154.402344 221.996094 154.386719 222.160156 154.386719 C 223.078125 154.386719 223.921875 154.761719 224.535156 155.394531 C 224.054688 155.332031 223.574219 155.300781 223.09375 155.300781 C 222.035156 155.300781 220.980469 155.460938 219.9375 155.804688 C 218.058594 156.429688 212.875 159.636719 217.53125 160.753906 C 218.199219 160.914062 218.972656 160.976562 219.78125 160.976562 C 221.28125 160.976562 222.898438 160.761719 224.167969 160.554688 C 225.445312 160.34375 226.894531 159.613281 227.398438 158.671875 C 227.308594 159.058594 227.066406 159.425781 226.652344 159.71875 C 224.90625 160.945312 222.890625 161.550781 220.859375 161.550781 " fill-opacity="1" fill-rule="nonzero"/><path fill="#ffffff" d="M 220.429688 173.105469 C 213.511719 176.226562 210.515625 184.539062 213.734375 191.667969 C 216.953125 198.800781 225.167969 202.046875 232.085938 198.925781 C 239 195.800781 241.996094 187.488281 238.777344 180.359375 C 235.558594 173.226562 227.34375 169.980469 220.429688 173.105469 Z M 173.007812 180.359375 C 176.226562 187.488281 173.230469 195.800781 166.316406 198.925781 C 159.398438 202.046875 151.183594 198.800781 147.964844 191.667969 C 144.746094 184.539062 147.742188 176.226562 154.660156 173.105469 C 161.574219 169.980469 169.789062 173.226562 173.007812 180.359375 " fill-opacity="1" fill-rule="nonzero"/><path fill="#545454" d="M 249.140625 216.78125 C 243.277344 209.980469 229.871094 209.308594 222.011719 212.050781 C 221.027344 212.394531 220.40625 211.042969 221.351562 210.617188 C 229.976562 206.753906 245.566406 206.121094 252.007812 214.707031 C 253.382812 216.546875 250.671875 218.546875 249.140625 216.78125 Z M 168.949219 212 C 161.183594 210.425781 148.933594 212.960938 144.777344 220.4375 C 143.691406 222.375 140.820312 220.800781 141.75 218.808594 C 146.109375 209.507812 160.617188 207.941406 169.292969 210.507812 C 170.242188 210.792969 169.921875 212.199219 168.949219 212 Z M 171.617188 205.160156 C 172.351562 205.882812 171.277344 207.046875 170.53125 206.335938 C 163.355469 199.75 153.625 198.089844 144.234375 199.234375 C 142.1875 199.484375 141.621094 196.082031 143.613281 195.683594 C 154.378906 193.5 164.054688 197.65625 171.617188 205.160156 Z M 171.296875 194.621094 C 169.960938 195.824219 168.625 196.320312 168.121094 196.488281 C 163.839844 197.914062 158.667969 195.894531 155.769531 192.308594 C 151.984375 187.625 153.355469 181.847656 153.589844 180.859375 C 154.410156 177.402344 156.34375 175.113281 157.378906 174.042969 C 153.710938 175.464844 152.070312 178.605469 149.382812 181.476562 C 148.203125 182.71875 145.980469 181.4375 146.171875 179.851562 C 146.839844 173.875 153.988281 169.851562 159.554688 169.671875 C 161.609375 169.609375 163.515625 169.941406 165.257812 170.605469 C 165.96875 170.878906 170.859375 172.816406 173.414062 178.0625 C 176.058594 183.492188 175.4375 190.886719 171.296875 194.621094 Z M 218.300781 196.445312 C 212.828125 193.476562 210.285156 186.820312 211.554688 181.601562 C 210.875 181.613281 210.105469 181.128906 210.285156 180.488281 C 211.929688 174.75 216.542969 170.472656 223.886719 169.4375 C 230.535156 168.515625 240.332031 171.082031 243.109375 176.863281 C 243.867188 178.394531 241.664062 180.101562 239.847656 179.101562 C 235.714844 176.792969 232.730469 174.015625 227.917969 173.335938 C 232.59375 176.578125 233.769531 183.695312 232.960938 187.722656 C 231.929688 192.964844 226.113281 200.671875 218.300781 196.445312 Z M 245.492188 195.632812 C 235.375 195.914062 225.464844 199.03125 219.21875 206.664062 C 218.570312 207.476562 217.210938 206.484375 217.839844 205.65625 C 224.3125 197.054688 233.671875 191.464844 245.441406 192.011719 C 247.621094 192.105469 247.699219 195.574219 245.492188 195.632812 Z M 190.277344 212.921875 C 189.402344 211.558594 188.808594 210.195312 187.757812 209.078125 C 188.542969 208.726562 189.265625 208.292969 189.875 207.78125 C 191.113281 206.738281 191.972656 205.402344 192.484375 203.945312 C 193.539062 205.621094 195.109375 206.964844 197.074219 207.667969 C 197.421875 207.796875 197.796875 207.890625 198.179688 207.972656 C 197.472656 211.378906 193.046875 217.210938 190.277344 212.921875 Z M 205.988281 203.257812 C 203.28125 204.613281 201.378906 206.4375 198.078125 205.527344 C 194.941406 204.664062 193.074219 201.671875 192.945312 198.558594 C 194.230469 198.574219 195.550781 198.097656 196.785156 196.910156 C 198.3125 195.441406 198.941406 192.875 197.527344 191.105469 C 196.796875 190.195312 195.789062 190.042969 194.703125 190.007812 C 192.800781 189.949219 190.871094 190.070312 188.964844 190.101562 C 188.527344 190.109375 188.203125 190.277344 187.976562 190.527344 L 187.929688 190.511719 C 186.824219 190.179688 185.757812 191.28125 186.070312 192.375 C 186.777344 194.875 188.691406 197.21875 190.96875 198.148438 L 190.96875 198.21875 C 190.9375 199.019531 191.003906 199.816406 191.15625 200.589844 C 191.035156 202.660156 190.128906 204.640625 188.449219 205.96875 C 185.785156 208.070312 183.246094 207.332031 180.265625 206.761719 C 179.355469 206.589844 178.46875 207.726562 179.285156 208.449219 C 180.898438 209.878906 183.195312 210.210938 185.378906 209.820312 C 185.445312 209.90625 185.527344 209.988281 185.628906 210.0625 C 188.527344 212.105469 188.585938 217.550781 193.261719 216.890625 C 196.769531 216.398438 200.105469 211.675781 200.546875 208.167969 C 203.371094 208.070312 206.296875 206.851562 207.339844 204.292969 C 207.667969 203.484375 206.625 202.9375 205.988281 203.257812 " fill-opacity="1" fill-rule="nonzero"/></svg>